<svg xmlns="http://www.w3.org/2000/svg" xmlns:xlink="http://www.w3.org/1999/xlink" width="1920" zoomAndPan="magnify" viewBox="0 0 1440 809.999993" height="1080" preserveAspectRatio="xMidYMid meet" version="1.2"><defs><clipPath id="32382fe252"><path d="M 629 192 L 811 192 L 811 374 L 629 374 Z M 629 192 "/></clipPath><clipPath id="c707f75a79"><path d="M 719.75 181.425781 L 821.574219 283.25 L 719.75 385.074219 L 617.925781 283.25 Z M 719.75 181.425781 "/></clipPath><clipPath id="1ff5c2d512"><path d="M 802.480469 302.34375 L 738.84375 365.980469 C 728.296875 376.527344 711.203125 376.527344 700.65625 365.980469 L 637.019531 302.34375 C 626.472656 291.796875 626.472656 274.703125 637.019531 264.15625 L 700.65625 200.519531 C 711.203125 189.972656 728.296875 189.972656 738.84375 200.519531 L 802.480469 264.15625 C 813.027344 274.703125 813.027344 291.796875 802.480469 302.34375 Z M 802.480469 302.34375 "/></clipPath><clipPath id="223739dddd"><path d="M 508 313 L 691 313 L 691 496 L 508 496 Z M 508 313 "/></clipPath><clipPath id="ed5df8dc85"><path d="M 599.523438 302.5625 L 701.34375 404.386719 L 599.523438 506.210938 L 497.699219 404.386719 Z M 599.523438 302.5625 "/></clipPath><clipPath id="32758b2cf6"><path d="M 682.253906 423.476562 L 618.613281 487.117188 C 608.070312 497.660156 590.972656 497.660156 580.429688 487.117188 L 516.789062 423.476562 C 506.246094 412.933594 506.246094 395.839844 516.789062 385.292969 L 580.429688 321.652344 C 590.972656 311.109375 608.070312 311.109375 618.613281 321.652344 L 682.253906 385.292969 C 692.796875 395.839844 692.796875 412.933594 682.253906 423.476562 Z M 682.253906 423.476562 "/></clipPath><clipPath id="2f555f4d15"><path d="M 749 313 L 931 313 L 931 496 L 749 496 Z M 749 313 "/></clipPath><clipPath id="1157535014"><path d="M 839.976562 302.5625 L 941.800781 404.386719 L 839.976562 506.210938 L 738.15625 404.386719 Z M 839.976562 302.5625 "/></clipPath><clipPath id="0d427b4a27"><path d="M 922.710938 423.476562 L 859.070312 487.117188 C 848.527344 497.660156 831.429688 497.660156 820.886719 487.117188 L 757.246094 423.476562 C 746.703125 412.933594 746.703125 395.839844 757.246094 385.292969 L 820.886719 321.652344 C 831.429688 311.109375 848.527344 311.109375 859.070312 321.652344 L 922.710938 385.292969 C 933.253906 395.839844 933.253906 412.933594 922.710938 423.476562 Z M 922.710938 423.476562 "/></clipPath><clipPath id="e988ded392"><path d="M 629 434 L 811 434 L 811 617 L 629 617 Z M 629 434 "/></clipPath><clipPath id="9ee5b656db"><path d="M 719.75 423.699219 L 821.574219 525.523438 L 719.75 627.34375 L 617.925781 525.523438 Z M 719.75 423.699219 "/></clipPath><clipPath id="57813737d6"><path d="M 802.480469 544.613281 L 738.84375 608.253906 C 728.296875 618.796875 711.203125 618.796875 700.65625 608.253906 L 637.019531 544.613281 C 626.472656 534.070312 626.472656 516.972656 637.019531 506.429688 L 700.65625 442.789062 C 711.203125 432.246094 728.296875 432.246094 738.84375 442.789062 L 802.480469 506.429688 C 813.027344 516.972656 813.027344 534.070312 802.480469 544.613281 Z M 802.480469 544.613281 "/></clipPath><clipPath id="a39a7dfc3c"><path d="M 777.453125 351.007812 L 902.703125 351.007812 L 902.703125 455 L 777.453125 455 Z M 777.453125 351.007812 "/></clipPath><clipPath id="b2e9bdd17a"><path d="M 821.097656 347.167969 L 858.859375 347.167969 L 858.859375 384.925781 L 821.097656 384.925781 Z M 821.097656 347.167969 "/></clipPath><clipPath id="6bf3cad70c"><path d="M 839.976562 347.167969 C 829.550781 347.167969 821.097656 355.621094 821.097656 366.046875 C 821.097656 376.472656 829.550781 384.925781 839.976562 384.925781 C 850.40625 384.925781 858.859375 376.472656 858.859375 366.046875 C 858.859375 355.621094 850.40625 347.167969 839.976562 347.167969 Z M 839.976562 347.167969 "/></clipPath><clipPath id="bdea03270e"><path d="M 821.097656 423.84375 L 858.859375 423.84375 L 858.859375 461.605469 L 821.097656 461.605469 Z M 821.097656 423.84375 "/></clipPath><clipPath id="286d3ce9a1"><path d="M 839.976562 423.84375 C 829.550781 423.84375 821.097656 432.296875 821.097656 442.726562 C 821.097656 453.152344 829.550781 461.605469 839.976562 461.605469 C 850.40625 461.605469 858.859375 453.152344 858.859375 442.726562 C 858.859375 432.296875 850.40625 423.84375 839.976562 423.84375 Z M 839.976562 423.84375 "/></clipPath><clipPath id="5568e56be0"><path d="M 777.453125 384.925781 L 902.703125 384.925781 L 902.703125 429.175781 L 777.453125 429.175781 Z M 777.453125 384.925781 "/></clipPath><clipPath id="416839d523"><path d="M 653.160156 499.164062 L 786 499.164062 L 786 548.664062 L 653.160156 548.664062 Z M 653.160156 499.164062 "/></clipPath><clipPath id="f6605ee5d5"><path d="M 653.160156 504.660156 L 786 504.660156 L 786 551.910156 L 653.160156 551.910156 Z M 653.160156 504.660156 "/></clipPath><clipPath id="6786fa81ee"><path d="M 655.460938 257.800781 L 784 257.800781 L 784 305.589844 L 655.460938 305.589844 Z M 655.460938 257.800781 "/></clipPath><clipPath id="745425ae72"><path d="M 655.460938 263.109375 L 784 263.109375 L 784 308.726562 L 655.460938 308.726562 Z M 655.460938 263.109375 "/></clipPath><clipPath id="6b6bdfacef"><path d="M 694.300781 219 L 742.089844 219 L 742.089844 347.535156 L 694.300781 347.535156 Z M 694.300781 219 "/></clipPath><clipPath id="c34edcf65a"><path d="M 699.609375 219 L 745.226562 219 L 745.226562 347.53125 L 699.609375 347.53125 Z M 699.609375 219 "/></clipPath><clipPath id="6fe7a95f07"><path d="M 552 357 L 645 357 L 645 450 L 552 450 Z M 552 357 "/></clipPath><clipPath id="c6b19e24cd"><path d="M 539.304688 430.449219 L 625.792969 343.957031 L 657.863281 376.027344 L 571.375 462.515625 Z M 539.304688 430.449219 "/></clipPath><clipPath id="4dc55c4cc3"><path d="M 519.464844 410.605469 L 605.953125 324.117188 L 677.867188 396.027344 L 591.375 482.519531 Z M 519.464844 410.605469 "/></clipPath><clipPath id="04014b623d"><path d="M 554 359 L 647 359 L 647 452 L 554 452 Z M 554 359 "/></clipPath><clipPath id="7ab6a04b56"><path d="M 542.867188 434.007812 L 629.355469 347.519531 L 659.96875 378.128906 L 573.476562 464.621094 Z M 542.867188 434.007812 "/></clipPath><clipPath id="9d7205c1ba"><path d="M 521.660156 412.800781 L 608.148438 326.3125 L 680.0625 398.226562 L 593.574219 484.714844 Z M 521.660156 412.800781 "/></clipPath><clipPath id="bc6ce73c9a"><path d="M 552 359 L 645 359 L 645 452 L 552 452 Z M 552 359 "/></clipPath><clipPath id="daeec541e2"><path d="M 625.582031 464.601562 L 539.09375 378.109375 L 571.160156 346.042969 L 657.652344 432.53125 Z M 625.582031 464.601562 "/></clipPath><clipPath id="933ba4605f"><path d="M 605.742188 484.441406 L 519.25 397.953125 L 591.164062 326.039062 L 677.652344 412.527344 Z M 605.742188 484.441406 "/></clipPath><clipPath id="06920f6412"><path d="M 554 357 L 647 357 L 647 450 L 554 450 Z M 554 357 "/></clipPath><clipPath id="8eaed48faf"><path d="M 629.144531 461.035156 L 542.652344 374.546875 L 573.265625 343.933594 L 659.753906 430.425781 Z M 629.144531 461.035156 "/></clipPath><clipPath id="5ae3766d20"><path d="M 607.9375 482.242188 L 521.445312 395.753906 L 593.359375 323.839844 L 679.847656 410.328125 Z M 607.9375 482.242188 "/></clipPath></defs><g id="a2480ab298"><g clip-rule="nonzero" clip-path="url(#32382fe252)"><g clip-rule="nonzero" clip-path="url(#c707f75a79)"><g clip-rule="nonzero" clip-path="url(#1ff5c2d512)"><path style=" stroke:none;fill-rule:nonzero;fill:#000000;fill-opacity:1;" d="M 719.75 181.425781 L 821.574219 283.25 L 719.75 385.074219 L 617.925781 283.25 Z M 719.75 181.425781 "/></g></g></g><g clip-rule="nonzero" clip-path="url(#223739dddd)"><g clip-rule="nonzero" clip-path="url(#ed5df8dc85)"><g clip-rule="nonzero" clip-path="url(#32758b2cf6)"><path style=" stroke:none;fill-rule:nonzero;fill:#000000;fill-opacity:1;" d="M 599.523438 302.5625 L 701.34375 404.386719 L 599.523438 506.210938 L 497.699219 404.386719 Z M 599.523438 302.5625 "/></g></g></g><g clip-rule="nonzero" clip-path="url(#2f555f4d15)"><g clip-rule="nonzero" clip-path="url(#1157535014)"><g clip-rule="nonzero" clip-path="url(#0d427b4a27)"><path style=" stroke:none;fill-rule:nonzero;fill:#000000;fill-opacity:1;" d="M 839.976562 302.5625 L 941.800781 404.386719 L 839.976562 506.210938 L 738.15625 404.386719 Z M 839.976562 302.5625 "/></g></g></g><g clip-rule="nonzero" clip-path="url(#e988ded392)"><g clip-rule="nonzero" clip-path="url(#9ee5b656db)"><g clip-rule="nonzero" clip-path="url(#57813737d6)"><path style=" stroke:none;fill-rule:nonzero;fill:#000000;fill-opacity:1;" d="M 719.75 423.699219 L 821.574219 525.523438 L 719.75 627.34375 L 617.925781 525.523438 Z M 719.75 423.699219 "/></g></g></g><g clip-rule="nonzero" clip-path="url(#a39a7dfc3c)"><path style=" stroke:none;fill-rule:nonzero;fill:#ffffff;fill-opacity:1;" d="M 839.972656 351.390625 C 839.296875 351.390625 838.625 351.457031 837.957031 351.585938 C 837.292969 351.71875 836.648438 351.917969 836.019531 352.175781 C 835.394531 352.433594 834.796875 352.753906 834.234375 353.128906 C 833.667969 353.507812 833.148438 353.9375 832.667969 354.414062 C 832.1875 354.894531 831.757812 355.417969 831.382812 355.980469 C 831.003906 356.546875 830.6875 357.140625 830.425781 357.769531 C 830.167969 358.394531 829.972656 359.042969 829.839844 359.707031 C 829.707031 360.371094 829.640625 361.042969 829.640625 361.722656 C 829.640625 362.402344 829.707031 363.074219 829.839844 363.738281 C 829.972656 364.40625 830.167969 365.050781 830.425781 365.675781 C 830.6875 366.304688 831.003906 366.898438 831.382812 367.464844 C 831.757812 368.027344 832.1875 368.550781 832.667969 369.03125 C 833.148438 369.511719 833.667969 369.9375 834.234375 370.316406 C 834.796875 370.691406 835.394531 371.011719 836.019531 371.269531 C 836.648438 371.53125 837.292969 371.726562 837.957031 371.859375 C 838.625 371.992188 839.296875 372.058594 839.972656 372.058594 C 840.652344 372.058594 841.324219 371.992188 841.992188 371.859375 C 842.65625 371.726562 843.300781 371.53125 843.929688 371.269531 C 844.554688 371.011719 845.152344 370.691406 845.714844 370.316406 C 846.28125 369.9375 846.800781 369.511719 847.28125 369.03125 C 847.761719 368.550781 848.191406 368.027344 848.566406 367.464844 C 848.945312 366.898438 849.261719 366.304688 849.523438 365.675781 C 849.78125 365.050781 849.976562 364.40625 850.109375 363.738281 C 850.242188 363.074219 850.308594 362.402344 850.308594 361.722656 C 850.308594 361.042969 850.242188 360.371094 850.109375 359.707031 C 849.976562 359.042969 849.78125 358.394531 849.523438 357.769531 C 849.261719 357.140625 848.945312 356.546875 848.566406 355.980469 C 848.191406 355.417969 847.761719 354.894531 847.28125 354.414062 C 846.800781 353.9375 846.28125 353.507812 845.714844 353.128906 C 845.152344 352.753906 844.554688 352.433594 843.929688 352.175781 C 843.300781 351.917969 842.65625 351.71875 841.992188 351.585938 C 841.324219 351.457031 840.652344 351.390625 839.972656 351.390625 Z M 788.304688 392.722656 C 787.621094 392.714844 786.941406 392.773438 786.269531 392.898438 C 785.59375 393.023438 784.941406 393.214844 784.304688 393.46875 C 783.671875 393.722656 783.066406 394.039062 782.492188 394.414062 C 781.921875 394.789062 781.390625 395.21875 780.902344 395.699219 C 780.414062 396.179688 779.980469 396.703125 779.597656 397.269531 C 779.214844 397.839844 778.890625 398.4375 778.625 399.070312 C 778.359375 399.699219 778.160156 400.351562 778.027344 401.023438 C 777.890625 401.695312 777.824219 402.375 777.824219 403.058594 C 777.824219 403.742188 777.890625 404.421875 778.027344 405.09375 C 778.160156 405.761719 778.359375 406.414062 778.625 407.046875 C 778.890625 407.679688 779.214844 408.277344 779.597656 408.84375 C 779.980469 409.414062 780.414062 409.9375 780.902344 410.417969 C 781.390625 410.898438 781.921875 411.328125 782.492188 411.703125 C 783.066406 412.078125 783.671875 412.390625 784.304688 412.648438 C 784.941406 412.902344 785.59375 413.09375 786.269531 413.21875 C 786.941406 413.34375 787.621094 413.402344 788.304688 413.390625 L 891.644531 413.390625 C 892.328125 413.402344 893.007812 413.34375 893.679688 413.21875 C 894.351562 413.09375 895.007812 412.902344 895.644531 412.648438 C 896.277344 412.390625 896.882812 412.078125 897.457031 411.703125 C 898.027344 411.328125 898.558594 410.898438 899.046875 410.417969 C 899.53125 409.9375 899.96875 409.414062 900.351562 408.84375 C 900.734375 408.277344 901.058594 407.679688 901.324219 407.046875 C 901.589844 406.414062 901.789062 405.761719 901.921875 405.09375 C 902.058594 404.421875 902.125 403.742188 902.125 403.058594 C 902.125 402.375 902.058594 401.695312 901.921875 401.023438 C 901.789062 400.351562 901.589844 399.699219 901.324219 399.070312 C 901.058594 398.4375 900.734375 397.839844 900.351562 397.269531 C 899.96875 396.703125 899.53125 396.179688 899.046875 395.699219 C 898.558594 395.21875 898.027344 394.789062 897.457031 394.414062 C 896.882812 394.039062 896.277344 393.722656 895.644531 393.46875 C 895.007812 393.214844 894.351562 393.023438 893.679688 392.898438 C 893.007812 392.773438 892.328125 392.714844 891.644531 392.722656 Z M 839.972656 434.058594 C 839.296875 434.058594 838.625 434.125 837.957031 434.257812 C 837.292969 434.390625 836.648438 434.585938 836.019531 434.847656 C 835.394531 435.105469 834.796875 435.425781 834.234375 435.800781 C 833.667969 436.179688 833.148438 436.605469 832.667969 437.085938 C 832.1875 437.566406 831.757812 438.089844 831.382812 438.652344 C 831.003906 439.214844 830.6875 439.8125 830.425781 440.4375 C 830.167969 441.066406 829.972656 441.710938 829.839844 442.378906 C 829.707031 443.042969 829.640625 443.714844 829.640625 444.394531 C 829.640625 445.070312 829.707031 445.742188 829.839844 446.410156 C 829.972656 447.074219 830.167969 447.722656 830.425781 448.347656 C 830.6875 448.976562 831.003906 449.570312 831.382812 450.132812 C 831.757812 450.699219 832.1875 451.21875 832.667969 451.699219 C 833.148438 452.179688 833.667969 452.609375 834.234375 452.984375 C 834.796875 453.363281 835.394531 453.679688 836.019531 453.941406 C 836.648438 454.199219 837.292969 454.394531 837.957031 454.527344 C 838.625 454.660156 839.296875 454.726562 839.972656 454.726562 C 840.652344 454.726562 841.324219 454.660156 841.992188 454.527344 C 842.65625 454.394531 843.300781 454.199219 843.929688 453.941406 C 844.554688 453.679688 845.152344 453.363281 845.714844 452.984375 C 846.28125 452.609375 846.800781 452.179688 847.28125 451.699219 C 847.761719 451.21875 848.191406 450.699219 848.566406 450.132812 C 848.945312 449.570312 849.261719 448.976562 849.523438 448.347656 C 849.78125 447.722656 849.976562 447.074219 850.109375 446.410156 C 850.242188 445.742188 850.308594 445.070312 850.308594 444.394531 C 850.308594 443.714844 850.242188 443.042969 850.109375 442.378906 C 849.976562 441.710938 849.78125 441.066406 849.523438 440.4375 C 849.261719 439.8125 848.945312 439.214844 848.566406 438.652344 C 848.191406 438.089844 847.761719 437.566406 847.28125 437.085938 C 846.800781 436.605469 846.28125 436.179688 845.714844 435.800781 C 845.152344 435.425781 844.554688 435.105469 843.929688 434.847656 C 843.300781 434.585938 842.65625 434.390625 841.992188 434.257812 C 841.324219 434.125 840.652344 434.058594 839.972656 434.058594 Z M 839.972656 434.058594 "/></g><g clip-rule="nonzero" clip-path="url(#b2e9bdd17a)"><g clip-rule="nonzero" clip-path="url(#6bf3cad70c)"><path style=" stroke:none;fill-rule:nonzero;fill:#ffffff;fill-opacity:1;" d="M 821.097656 347.167969 L 858.859375 347.167969 L 858.859375 384.925781 L 821.097656 384.925781 Z M 821.097656 347.167969 "/></g></g><g clip-rule="nonzero" clip-path="url(#bdea03270e)"><g clip-rule="nonzero" clip-path="url(#286d3ce9a1)"><path style=" stroke:none;fill-rule:nonzero;fill:#ffffff;fill-opacity:1;" d="M 821.097656 423.84375 L 858.859375 423.84375 L 858.859375 461.605469 L 821.097656 461.605469 Z M 821.097656 423.84375 "/></g></g><g clip-rule="nonzero" clip-path="url(#5568e56be0)"><path style=" stroke:none;fill-rule:nonzero;fill:#ffffff;fill-opacity:1;" d="M 839.972656 354.570312 C 839.296875 354.570312 838.625 354.636719 837.957031 354.769531 C 837.292969 354.902344 836.648438 355.097656 836.019531 355.359375 C 835.394531 355.617188 834.796875 355.9375 834.234375 356.3125 C 833.667969 356.691406 833.148438 357.117188 832.667969 357.597656 C 832.1875 358.078125 831.757812 358.601562 831.382812 359.164062 C 831.003906 359.730469 830.6875 360.324219 830.425781 360.953125 C 830.167969 361.578125 829.972656 362.222656 829.839844 362.890625 C 829.707031 363.554688 829.640625 364.226562 829.640625 364.90625 C 829.640625 365.585938 829.707031 366.257812 829.839844 366.921875 C 829.972656 367.585938 830.167969 368.234375 830.425781 368.859375 C 830.6875 369.488281 831.003906 370.082031 831.382812 370.648438 C 831.757812 371.210938 832.1875 371.734375 832.667969 372.214844 C 833.148438 372.691406 833.667969 373.121094 834.234375 373.5 C 834.796875 373.875 835.394531 374.195312 836.019531 374.453125 C 836.648438 374.710938 837.292969 374.910156 837.957031 375.042969 C 838.625 375.171875 839.296875 375.238281 839.972656 375.238281 C 840.652344 375.238281 841.324219 375.171875 841.992188 375.042969 C 842.65625 374.910156 843.300781 374.710938 843.929688 374.453125 C 844.554688 374.195312 845.152344 373.875 845.714844 373.5 C 846.28125 373.121094 846.800781 372.691406 847.28125 372.214844 C 847.761719 371.734375 848.191406 371.210938 848.566406 370.648438 C 848.945312 370.082031 849.261719 369.488281 849.523438 368.859375 C 849.78125 368.234375 849.976562 367.585938 850.109375 366.921875 C 850.242188 366.257812 850.308594 365.585938 850.308594 364.90625 C 850.308594 364.226562 850.242188 363.554688 850.109375 362.890625 C 849.976562 362.222656 849.78125 361.578125 849.523438 360.953125 C 849.261719 360.324219 848.945312 359.730469 848.566406 359.164062 C 848.191406 358.601562 847.761719 358.078125 847.28125 357.597656 C 846.800781 357.117188 846.28125 356.691406 845.714844 356.3125 C 845.152344 355.9375 844.554688 355.617188 843.929688 355.359375 C 843.300781 355.097656 842.65625 354.902344 841.992188 354.769531 C 841.324219 354.636719 840.652344 354.570312 839.972656 354.570312 Z M 788.304688 395.90625 C 787.621094 395.898438 786.941406 395.957031 786.269531 396.082031 C 785.59375 396.207031 784.941406 396.394531 784.304688 396.652344 C 783.671875 396.90625 783.066406 397.222656 782.492188 397.597656 C 781.921875 397.972656 781.390625 398.402344 780.902344 398.882812 C 780.414062 399.363281 779.980469 399.886719 779.597656 400.453125 C 779.214844 401.019531 778.890625 401.621094 778.625 402.253906 C 778.359375 402.882812 778.160156 403.535156 778.027344 404.207031 C 777.890625 404.878906 777.824219 405.554688 777.824219 406.242188 C 777.824219 406.925781 777.890625 407.605469 778.027344 408.273438 C 778.160156 408.945312 778.359375 409.597656 778.625 410.230469 C 778.890625 410.863281 779.214844 411.460938 779.597656 412.027344 C 779.980469 412.59375 780.414062 413.121094 780.902344 413.601562 C 781.390625 414.082031 781.921875 414.507812 782.492188 414.882812 C 783.066406 415.261719 783.671875 415.574219 784.304688 415.832031 C 784.941406 416.085938 785.59375 416.277344 786.269531 416.402344 C 786.941406 416.527344 787.621094 416.585938 788.304688 416.574219 L 891.644531 416.574219 C 892.328125 416.585938 893.007812 416.527344 893.679688 416.402344 C 894.351562 416.277344 895.007812 416.085938 895.644531 415.832031 C 896.277344 415.574219 896.882812 415.261719 897.457031 414.882812 C 898.027344 414.507812 898.558594 414.082031 899.046875 413.601562 C 899.53125 413.121094 899.96875 412.59375 900.351562 412.027344 C 900.734375 411.460938 901.058594 410.863281 901.324219 410.230469 C 901.589844 409.597656 901.789062 408.945312 901.921875 408.273438 C 902.058594 407.605469 902.125 406.925781 902.125 406.242188 C 902.125 405.554688 902.058594 404.878906 901.921875 404.207031 C 901.789062 403.535156 901.589844 402.882812 901.324219 402.253906 C 901.058594 401.621094 900.734375 401.019531 900.351562 400.453125 C 899.96875 399.886719 899.53125 399.363281 899.046875 398.882812 C 898.558594 398.402344 898.027344 397.972656 897.457031 397.597656 C 896.882812 397.222656 896.277344 396.90625 895.644531 396.652344 C 895.007812 396.394531 894.351562 396.207031 893.679688 396.082031 C 893.007812 395.957031 892.328125 395.898438 891.644531 395.90625 Z M 839.972656 437.242188 C 839.296875 437.242188 838.625 437.308594 837.957031 437.441406 C 837.292969 437.574219 836.648438 437.769531 836.019531 438.027344 C 835.394531 438.289062 834.796875 438.605469 834.234375 438.984375 C 833.667969 439.359375 833.148438 439.789062 832.667969 440.269531 C 832.1875 440.75 831.757812 441.269531 831.382812 441.835938 C 831.003906 442.398438 830.6875 442.996094 830.425781 443.621094 C 830.167969 444.25 829.972656 444.894531 829.839844 445.558594 C 829.707031 446.226562 829.640625 446.898438 829.640625 447.578125 C 829.640625 448.253906 829.707031 448.925781 829.839844 449.59375 C 829.972656 450.257812 830.167969 450.902344 830.425781 451.53125 C 830.6875 452.15625 831.003906 452.753906 831.382812 453.316406 C 831.757812 453.882812 832.1875 454.402344 832.667969 454.882812 C 833.148438 455.363281 833.667969 455.792969 834.234375 456.167969 C 834.796875 456.546875 835.394531 456.863281 836.019531 457.125 C 836.648438 457.382812 837.292969 457.578125 837.957031 457.710938 C 838.625 457.84375 839.296875 457.910156 839.972656 457.910156 C 840.652344 457.910156 841.324219 457.84375 841.992188 457.710938 C 842.65625 457.578125 843.300781 457.382812 843.929688 457.125 C 844.554688 456.863281 845.152344 456.546875 845.714844 456.167969 C 846.28125 455.792969 846.800781 455.363281 847.28125 454.882812 C 847.761719 454.402344 848.191406 453.882812 848.566406 453.316406 C 848.945312 452.753906 849.261719 452.15625 849.523438 451.53125 C 849.78125 450.902344 849.976562 450.257812 850.109375 449.59375 C 850.242188 448.925781 850.308594 448.253906 850.308594 447.578125 C 850.308594 446.898438 850.242188 446.226562 850.109375 445.558594 C 849.976562 444.894531 849.78125 444.25 849.523438 443.621094 C 849.261719 442.996094 848.945312 442.398438 848.566406 441.835938 C 848.191406 441.269531 847.761719 440.75 847.28125 440.269531 C 846.800781 439.789062 846.28125 439.359375 845.714844 438.984375 C 845.152344 438.605469 844.554688 438.289062 843.929688 438.027344 C 843.300781 437.769531 842.65625 437.574219 841.992188 437.441406 C 841.324219 437.308594 840.652344 437.242188 839.972656 437.242188 Z M 839.972656 437.242188 "/></g><g clip-rule="nonzero" clip-path="url(#416839d523)"><path style=" stroke:none;fill-rule:nonzero;fill:#ffffff;fill-opacity:1;" d="M 719.746094 468.941406 C 719.023438 468.941406 718.308594 469.011719 717.597656 469.152344 C 716.890625 469.292969 716.203125 469.503906 715.535156 469.78125 C 714.867188 470.054688 714.234375 470.394531 713.632812 470.796875 C 713.03125 471.199219 712.476562 471.65625 711.964844 472.164062 C 711.453125 472.675781 710.996094 473.234375 710.59375 473.832031 C 710.195312 474.433594 709.855469 475.070312 709.578125 475.734375 C 709.300781 476.402344 709.09375 477.09375 708.953125 477.800781 C 708.8125 478.507812 708.742188 479.226562 708.742188 479.949219 C 708.742188 480.671875 708.8125 481.386719 708.953125 482.09375 C 709.09375 482.804688 709.300781 483.492188 709.578125 484.160156 C 709.855469 484.828125 710.195312 485.460938 710.59375 486.0625 C 710.996094 486.664062 711.453125 487.21875 711.964844 487.730469 C 712.476562 488.242188 713.03125 488.699219 713.632812 489.097656 C 714.234375 489.5 714.867188 489.839844 715.535156 490.117188 C 716.203125 490.394531 716.890625 490.601562 717.597656 490.742188 C 718.308594 490.882812 719.023438 490.953125 719.746094 490.953125 C 720.46875 490.953125 721.183594 490.882812 721.894531 490.742188 C 722.601562 490.601562 723.289062 490.394531 723.957031 490.117188 C 724.625 489.839844 725.261719 489.5 725.859375 489.097656 C 726.460938 488.699219 727.019531 488.242188 727.527344 487.730469 C 728.039062 487.21875 728.496094 486.664062 728.898438 486.0625 C 729.300781 485.460938 729.636719 484.828125 729.914062 484.160156 C 730.191406 483.492188 730.398438 482.804688 730.539062 482.09375 C 730.683594 481.386719 730.753906 480.671875 730.753906 479.949219 C 730.753906 479.226562 730.683594 478.507812 730.539062 477.800781 C 730.398438 477.09375 730.191406 476.402344 729.914062 475.734375 C 729.636719 475.070312 729.300781 474.433594 728.898438 473.832031 C 728.496094 473.234375 728.039062 472.675781 727.527344 472.164062 C 727.019531 471.65625 726.460938 471.199219 725.859375 470.796875 C 725.261719 470.394531 724.625 470.054688 723.957031 469.78125 C 723.289062 469.503906 722.601562 469.292969 721.894531 469.152344 C 721.183594 469.011719 720.46875 468.941406 719.746094 468.941406 Z M 664.71875 512.964844 C 663.988281 512.957031 663.265625 513.015625 662.546875 513.152344 C 661.832031 513.285156 661.132812 513.488281 660.457031 513.757812 C 659.78125 514.03125 659.136719 514.367188 658.527344 514.765625 C 657.917969 515.164062 657.351562 515.621094 656.832031 516.132812 C 656.3125 516.644531 655.851562 517.203125 655.441406 517.808594 C 655.035156 518.414062 654.6875 519.050781 654.40625 519.722656 C 654.125 520.394531 653.914062 521.089844 653.769531 521.804688 C 653.625 522.519531 653.554688 523.242188 653.554688 523.972656 C 653.554688 524.699219 653.625 525.421875 653.769531 526.136719 C 653.914062 526.851562 654.125 527.546875 654.40625 528.21875 C 654.6875 528.894531 655.035156 529.53125 655.441406 530.136719 C 655.851562 530.738281 656.3125 531.296875 656.832031 531.808594 C 657.351562 532.320312 657.917969 532.777344 658.527344 533.175781 C 659.136719 533.578125 659.78125 533.914062 660.457031 534.183594 C 661.132812 534.457031 661.832031 534.660156 662.546875 534.792969 C 663.265625 534.925781 663.988281 534.988281 664.71875 534.976562 L 774.777344 534.976562 C 775.503906 534.988281 776.226562 534.925781 776.945312 534.792969 C 777.664062 534.660156 778.359375 534.457031 779.035156 534.183594 C 779.710938 533.914062 780.355469 533.578125 780.964844 533.175781 C 781.574219 532.777344 782.140625 532.320312 782.660156 531.808594 C 783.179688 531.296875 783.644531 530.738281 784.050781 530.136719 C 784.460938 529.53125 784.804688 528.894531 785.085938 528.21875 C 785.367188 527.546875 785.578125 526.851562 785.722656 526.136719 C 785.867188 525.421875 785.9375 524.699219 785.9375 523.972656 C 785.9375 523.242188 785.867188 522.519531 785.722656 521.804688 C 785.578125 521.089844 785.367188 520.394531 785.085938 519.722656 C 784.804688 519.050781 784.460938 518.414062 784.050781 517.808594 C 783.644531 517.203125 783.179688 516.644531 782.660156 516.132812 C 782.140625 515.621094 781.574219 515.164062 780.964844 514.765625 C 780.355469 514.367188 779.710938 514.03125 779.035156 513.757812 C 778.359375 513.488281 777.664062 513.285156 776.945312 513.152344 C 776.226562 513.015625 775.503906 512.957031 774.777344 512.964844 Z M 719.746094 556.988281 C 719.023438 556.988281 718.308594 557.058594 717.597656 557.199219 C 716.890625 557.34375 716.203125 557.550781 715.535156 557.828125 C 714.867188 558.105469 714.234375 558.441406 713.632812 558.84375 C 713.03125 559.246094 712.476562 559.703125 711.964844 560.214844 C 711.453125 560.722656 710.996094 561.28125 710.59375 561.882812 C 710.195312 562.480469 709.855469 563.117188 709.578125 563.785156 C 709.300781 564.453125 709.09375 565.140625 708.953125 565.847656 C 708.8125 566.558594 708.742188 567.273438 708.742188 567.996094 C 708.742188 568.71875 708.8125 569.433594 708.953125 570.144531 C 709.09375 570.851562 709.300781 571.539062 709.578125 572.207031 C 709.855469 572.875 710.195312 573.507812 710.59375 574.109375 C 710.996094 574.710938 711.453125 575.265625 711.964844 575.777344 C 712.476562 576.289062 713.03125 576.746094 713.632812 577.148438 C 714.234375 577.546875 714.867188 577.886719 715.535156 578.164062 C 716.203125 578.441406 716.890625 578.648438 717.597656 578.789062 C 718.308594 578.929688 719.023438 579 719.746094 579 C 720.46875 579 721.183594 578.929688 721.894531 578.789062 C 722.601562 578.648438 723.289062 578.441406 723.957031 578.164062 C 724.625 577.886719 725.261719 577.546875 725.859375 577.148438 C 726.460938 576.746094 727.019531 576.289062 727.527344 575.777344 C 728.039062 575.265625 728.496094 574.710938 728.898438 574.109375 C 729.300781 573.507812 729.636719 572.875 729.914062 572.207031 C 730.191406 571.539062 730.398438 570.851562 730.539062 570.144531 C 730.683594 569.433594 730.753906 568.71875 730.753906 567.996094 C 730.753906 567.273438 730.683594 566.558594 730.539062 565.847656 C 730.398438 565.140625 730.191406 564.453125 729.914062 563.785156 C 729.636719 563.117188 729.300781 562.480469 728.898438 561.882812 C 728.496094 561.28125 728.039062 560.722656 727.527344 560.214844 C 727.019531 559.703125 726.460938 559.246094 725.859375 558.84375 C 725.261719 558.441406 724.625 558.105469 723.957031 557.828125 C 723.289062 557.550781 722.601562 557.34375 721.894531 557.199219 C 721.183594 557.058594 720.46875 556.988281 719.746094 556.988281 Z M 719.746094 556.988281 "/></g><g clip-rule="nonzero" clip-path="url(#f6605ee5d5)"><path style=" stroke:none;fill-rule:nonzero;fill:#ffffff;fill-opacity:1;" d="M 719.746094 472.332031 C 719.023438 472.332031 718.308594 472.402344 717.597656 472.542969 C 716.890625 472.683594 716.203125 472.894531 715.535156 473.167969 C 714.867188 473.445312 714.234375 473.785156 713.632812 474.1875 C 713.03125 474.589844 712.476562 475.042969 711.964844 475.554688 C 711.453125 476.066406 710.996094 476.621094 710.59375 477.222656 C 710.195312 477.824219 709.855469 478.457031 709.578125 479.125 C 709.300781 479.792969 709.09375 480.480469 708.953125 481.191406 C 708.8125 481.898438 708.742188 482.613281 708.742188 483.335938 C 708.742188 484.058594 708.8125 484.777344 708.953125 485.484375 C 709.09375 486.195312 709.300781 486.882812 709.578125 487.550781 C 709.855469 488.21875 710.195312 488.851562 710.59375 489.453125 C 710.996094 490.054688 711.453125 490.609375 711.964844 491.121094 C 712.476562 491.632812 713.03125 492.085938 713.632812 492.488281 C 714.234375 492.890625 714.867188 493.230469 715.535156 493.507812 C 716.203125 493.78125 716.890625 493.992188 717.597656 494.132812 C 718.308594 494.273438 719.023438 494.34375 719.746094 494.34375 C 720.46875 494.34375 721.183594 494.273438 721.894531 494.132812 C 722.601562 493.992188 723.289062 493.78125 723.957031 493.507812 C 724.625 493.230469 725.261719 492.890625 725.859375 492.488281 C 726.460938 492.085938 727.019531 491.632812 727.527344 491.121094 C 728.039062 490.609375 728.496094 490.054688 728.898438 489.453125 C 729.300781 488.851562 729.636719 488.21875 729.914062 487.550781 C 730.191406 486.882812 730.398438 486.195312 730.539062 485.484375 C 730.683594 484.777344 730.753906 484.058594 730.753906 483.335938 C 730.753906 482.613281 730.683594 481.898438 730.539062 481.191406 C 730.398438 480.480469 730.191406 479.792969 729.914062 479.125 C 729.636719 478.457031 729.300781 477.824219 728.898438 477.222656 C 728.496094 476.621094 728.039062 476.066406 727.527344 475.554688 C 727.019531 475.042969 726.460938 474.589844 725.859375 474.1875 C 725.261719 473.785156 724.625 473.445312 723.957031 473.167969 C 723.289062 472.894531 722.601562 472.683594 721.894531 472.542969 C 721.183594 472.402344 720.46875 472.332031 719.746094 472.332031 Z M 664.71875 516.355469 C 663.988281 516.34375 663.265625 516.40625 662.546875 516.539062 C 661.832031 516.671875 661.132812 516.875 660.457031 517.148438 C 659.78125 517.421875 659.136719 517.757812 658.527344 518.15625 C 657.917969 518.554688 657.351562 519.011719 656.832031 519.523438 C 656.3125 520.035156 655.851562 520.59375 655.441406 521.199219 C 655.035156 521.800781 654.6875 522.441406 654.40625 523.113281 C 654.125 523.785156 653.914062 524.480469 653.769531 525.195312 C 653.625 525.910156 653.554688 526.632812 653.554688 527.363281 C 653.554688 528.089844 653.625 528.8125 653.769531 529.527344 C 653.914062 530.242188 654.125 530.9375 654.40625 531.609375 C 654.6875 532.28125 655.035156 532.921875 655.441406 533.523438 C 655.851562 534.128906 656.3125 534.6875 656.832031 535.199219 C 657.351562 535.710938 657.917969 536.167969 658.527344 536.566406 C 659.136719 536.96875 659.78125 537.304688 660.457031 537.574219 C 661.132812 537.847656 661.832031 538.050781 662.546875 538.183594 C 663.265625 538.316406 663.988281 538.378906 664.71875 538.367188 L 774.777344 538.367188 C 775.503906 538.378906 776.226562 538.316406 776.945312 538.183594 C 777.664062 538.050781 778.359375 537.847656 779.035156 537.574219 C 779.710938 537.304688 780.355469 536.96875 780.964844 536.566406 C 781.574219 536.167969 782.140625 535.710938 782.660156 535.199219 C 783.179688 534.6875 783.644531 534.128906 784.050781 533.523438 C 784.460938 532.921875 784.804688 532.28125 785.085938 531.609375 C 785.367188 530.9375 785.578125 530.242188 785.722656 529.527344 C 785.867188 528.8125 785.9375 528.089844 785.9375 527.363281 C 785.9375 526.632812 785.867188 525.910156 785.722656 525.195312 C 785.578125 524.480469 785.367188 523.785156 785.085938 523.113281 C 784.804688 522.441406 784.460938 521.800781 784.050781 521.199219 C 783.644531 520.59375 783.179688 520.035156 782.660156 519.523438 C 782.140625 519.011719 781.574219 518.554688 780.964844 518.15625 C 780.355469 517.757812 779.710938 517.421875 779.035156 517.148438 C 778.359375 516.875 777.664062 516.671875 776.945312 516.539062 C 776.226562 516.40625 775.503906 516.34375 774.777344 516.355469 Z M 719.746094 560.378906 C 719.023438 560.378906 718.308594 560.449219 717.597656 560.589844 C 716.890625 560.730469 716.203125 560.941406 715.535156 561.21875 C 714.867188 561.492188 714.234375 561.832031 713.632812 562.234375 C 713.03125 562.636719 712.476562 563.09375 711.964844 563.601562 C 711.453125 564.113281 710.996094 564.671875 710.59375 565.269531 C 710.195312 565.871094 709.855469 566.507812 709.578125 567.171875 C 709.300781 567.839844 709.09375 568.53125 708.953125 569.238281 C 708.8125 569.945312 708.742188 570.664062 708.742188 571.386719 C 708.742188 572.109375 708.8125 572.824219 708.953125 573.53125 C 709.09375 574.242188 709.300781 574.929688 709.578125 575.597656 C 709.855469 576.265625 710.195312 576.898438 710.59375 577.5 C 710.996094 578.101562 711.453125 578.65625 711.964844 579.167969 C 712.476562 579.679688 713.03125 580.136719 713.632812 580.535156 C 714.234375 580.9375 714.867188 581.277344 715.535156 581.554688 C 716.203125 581.828125 716.890625 582.039062 717.597656 582.179688 C 718.308594 582.320312 719.023438 582.390625 719.746094 582.390625 C 720.46875 582.390625 721.183594 582.320312 721.894531 582.179688 C 722.601562 582.039062 723.289062 581.828125 723.957031 581.554688 C 724.625 581.277344 725.261719 580.9375 725.859375 580.535156 C 726.460938 580.136719 727.019531 579.679688 727.527344 579.167969 C 728.039062 578.65625 728.496094 578.101562 728.898438 577.5 C 729.300781 576.898438 729.636719 576.265625 729.914062 575.597656 C 730.191406 574.929688 730.398438 574.242188 730.539062 573.53125 C 730.683594 572.824219 730.753906 572.109375 730.753906 571.386719 C 730.753906 570.664062 730.683594 569.945312 730.539062 569.238281 C 730.398438 568.53125 730.191406 567.839844 729.914062 567.171875 C 729.636719 566.507812 729.300781 565.871094 728.898438 565.269531 C 728.496094 564.671875 728.039062 564.113281 727.527344 563.601562 C 727.019531 563.09375 726.460938 562.636719 725.859375 562.234375 C 725.261719 561.832031 724.625 561.492188 723.957031 561.21875 C 723.289062 560.941406 722.601562 560.730469 721.894531 560.589844 C 721.183594 560.449219 720.46875 560.378906 719.746094 560.378906 Z M 719.746094 560.378906 "/></g><g clip-rule="nonzero" clip-path="url(#6786fa81ee)"><path style=" stroke:none;fill-rule:nonzero;fill:#ffffff;fill-opacity:1;" d="M 719.746094 228.625 C 719.050781 228.625 718.359375 228.695312 717.671875 228.832031 C 716.988281 228.964844 716.324219 229.167969 715.679688 229.433594 C 715.035156 229.703125 714.421875 230.027344 713.84375 230.417969 C 713.261719 230.804688 712.726562 231.246094 712.234375 231.738281 C 711.738281 232.230469 711.300781 232.769531 710.910156 233.347656 C 710.523438 233.929688 710.195312 234.539062 709.929688 235.183594 C 709.664062 235.828125 709.460938 236.496094 709.324219 237.179688 C 709.1875 237.863281 709.121094 238.554688 709.121094 239.25 C 709.121094 239.949219 709.1875 240.640625 709.324219 241.324219 C 709.460938 242.007812 709.664062 242.671875 709.929688 243.316406 C 710.195312 243.960938 710.523438 244.574219 710.910156 245.15625 C 711.300781 245.734375 711.738281 246.273438 712.234375 246.765625 C 712.726562 247.257812 713.261719 247.699219 713.84375 248.085938 C 714.421875 248.472656 715.035156 248.800781 715.679688 249.066406 C 716.324219 249.335938 716.988281 249.535156 717.671875 249.671875 C 718.359375 249.808594 719.050781 249.878906 719.746094 249.878906 C 720.445312 249.878906 721.136719 249.808594 721.820312 249.671875 C 722.503906 249.535156 723.167969 249.335938 723.8125 249.066406 C 724.457031 248.800781 725.070312 248.472656 725.648438 248.085938 C 726.230469 247.699219 726.765625 247.257812 727.261719 246.765625 C 727.753906 246.273438 728.195312 245.734375 728.582031 245.15625 C 728.96875 244.574219 729.296875 243.960938 729.5625 243.316406 C 729.832031 242.671875 730.03125 242.007812 730.167969 241.324219 C 730.304688 240.640625 730.371094 239.949219 730.371094 239.25 C 730.371094 238.554688 730.304688 237.863281 730.167969 237.179688 C 730.03125 236.496094 729.832031 235.828125 729.5625 235.183594 C 729.296875 234.539062 728.96875 233.929688 728.582031 233.347656 C 728.195312 232.769531 727.753906 232.230469 727.261719 231.738281 C 726.765625 231.246094 726.230469 230.804688 725.648438 230.417969 C 725.070312 230.027344 724.457031 229.703125 723.8125 229.433594 C 723.167969 229.167969 722.503906 228.964844 721.820312 228.832031 C 721.136719 228.695312 720.445312 228.625 719.746094 228.625 Z M 666.617188 271.128906 C 665.914062 271.117188 665.214844 271.175781 664.523438 271.304688 C 663.832031 271.433594 663.160156 271.632812 662.507812 271.894531 C 661.851562 272.15625 661.230469 272.480469 660.644531 272.867188 C 660.054688 273.253906 659.507812 273.691406 659.007812 274.1875 C 658.507812 274.679688 658.058594 275.21875 657.664062 275.804688 C 657.269531 276.386719 656.9375 277.003906 656.664062 277.652344 C 656.394531 278.300781 656.1875 278.972656 656.050781 279.664062 C 655.910156 280.351562 655.84375 281.050781 655.84375 281.753906 C 655.84375 282.457031 655.910156 283.15625 656.050781 283.84375 C 656.1875 284.535156 656.394531 285.207031 656.664062 285.855469 C 656.9375 286.503906 657.269531 287.121094 657.664062 287.703125 C 658.058594 288.289062 658.507812 288.828125 659.007812 289.320312 C 659.507812 289.816406 660.054688 290.253906 660.644531 290.640625 C 661.230469 291.027344 661.851562 291.351562 662.507812 291.613281 C 663.160156 291.875 663.832031 292.070312 664.523438 292.199219 C 665.214844 292.328125 665.914062 292.390625 666.617188 292.378906 L 772.875 292.378906 C 773.578125 292.390625 774.277344 292.328125 774.96875 292.199219 C 775.660156 292.070312 776.332031 291.875 776.988281 291.613281 C 777.640625 291.351562 778.261719 291.027344 778.851562 290.640625 C 779.4375 290.253906 779.984375 289.816406 780.484375 289.320312 C 780.988281 288.828125 781.433594 288.289062 781.828125 287.703125 C 782.222656 287.121094 782.554688 286.503906 782.828125 285.855469 C 783.101562 285.207031 783.304688 284.535156 783.445312 283.84375 C 783.582031 283.15625 783.652344 282.457031 783.652344 281.753906 C 783.652344 281.050781 783.582031 280.351562 783.445312 279.664062 C 783.304688 278.972656 783.101562 278.300781 782.828125 277.652344 C 782.554688 277.003906 782.222656 276.386719 781.828125 275.804688 C 781.433594 275.21875 780.988281 274.679688 780.484375 274.1875 C 779.984375 273.691406 779.4375 273.253906 778.851562 272.867188 C 778.261719 272.480469 777.640625 272.15625 776.988281 271.894531 C 776.332031 271.632812 775.660156 271.433594 774.96875 271.304688 C 774.277344 271.175781 773.578125 271.117188 772.875 271.128906 Z M 719.746094 313.628906 C 719.050781 313.628906 718.359375 313.699219 717.671875 313.835938 C 716.988281 313.96875 716.324219 314.171875 715.679688 314.4375 C 715.035156 314.707031 714.421875 315.035156 713.84375 315.421875 C 713.261719 315.808594 712.726562 316.25 712.234375 316.742188 C 711.738281 317.234375 711.300781 317.773438 710.910156 318.351562 C 710.523438 318.933594 710.195312 319.546875 709.929688 320.191406 C 709.664062 320.835938 709.460938 321.5 709.324219 322.183594 C 709.1875 322.867188 709.121094 323.558594 709.121094 324.257812 C 709.121094 324.953125 709.1875 325.644531 709.324219 326.328125 C 709.460938 327.011719 709.664062 327.675781 709.929688 328.320312 C 710.195312 328.964844 710.523438 329.578125 710.910156 330.160156 C 711.300781 330.738281 711.738281 331.277344 712.234375 331.769531 C 712.726562 332.261719 713.261719 332.703125 713.84375 333.089844 C 714.421875 333.476562 715.035156 333.804688 715.679688 334.074219 C 716.324219 334.339844 716.988281 334.542969 717.671875 334.675781 C 718.359375 334.8125 719.050781 334.882812 719.746094 334.882812 C 720.445312 334.882812 721.136719 334.8125 721.820312 334.675781 C 722.503906 334.542969 723.167969 334.339844 723.8125 334.074219 C 724.457031 333.804688 725.070312 333.476562 725.648438 333.089844 C 726.230469 332.703125 726.765625 332.261719 727.261719 331.769531 C 727.753906 331.277344 728.195312 330.738281 728.582031 330.160156 C 728.96875 329.578125 729.296875 328.964844 729.5625 328.320312 C 729.832031 327.675781 730.03125 327.011719 730.167969 326.328125 C 730.304688 325.644531 730.371094 324.953125 730.371094 324.257812 C 730.371094 323.558594 730.304688 322.867188 730.167969 322.183594 C 730.03125 321.5 729.832031 320.835938 729.5625 320.191406 C 729.296875 319.546875 728.96875 318.933594 728.582031 318.351562 C 728.195312 317.773438 727.753906 317.234375 727.261719 316.742188 C 726.765625 316.25 726.230469 315.808594 725.648438 315.421875 C 725.070312 315.035156 724.457031 314.707031 723.8125 314.4375 C 723.167969 314.171875 722.503906 313.96875 721.820312 313.835938 C 721.136719 313.699219 720.445312 313.628906 719.746094 313.628906 Z M 719.746094 313.628906 "/></g><g clip-rule="nonzero" clip-path="url(#745425ae72)"><path style=" stroke:none;fill-rule:nonzero;fill:#ffffff;fill-opacity:1;" d="M 719.746094 231.898438 C 719.050781 231.898438 718.359375 231.964844 717.671875 232.101562 C 716.988281 232.238281 716.324219 232.441406 715.679688 232.707031 C 715.035156 232.972656 714.421875 233.300781 713.84375 233.691406 C 713.261719 234.078125 712.726562 234.515625 712.234375 235.011719 C 711.738281 235.503906 711.300781 236.039062 710.910156 236.621094 C 710.523438 237.199219 710.195312 237.8125 709.929688 238.457031 C 709.664062 239.101562 709.460938 239.765625 709.324219 240.453125 C 709.1875 241.136719 709.121094 241.828125 709.121094 242.523438 C 709.121094 243.222656 709.1875 243.914062 709.324219 244.597656 C 709.460938 245.28125 709.664062 245.945312 709.929688 246.589844 C 710.195312 247.234375 710.523438 247.847656 710.910156 248.425781 C 711.300781 249.007812 711.738281 249.542969 712.234375 250.039062 C 712.726562 250.53125 713.261719 250.972656 713.84375 251.359375 C 714.421875 251.746094 715.035156 252.074219 715.679688 252.339844 C 716.324219 252.609375 716.988281 252.808594 717.671875 252.945312 C 718.359375 253.082031 719.050781 253.148438 719.746094 253.148438 C 720.445312 253.148438 721.136719 253.082031 721.820312 252.945312 C 722.503906 252.808594 723.167969 252.609375 723.8125 252.339844 C 724.457031 252.074219 725.070312 251.746094 725.648438 251.359375 C 726.230469 250.972656 726.765625 250.53125 727.261719 250.039062 C 727.753906 249.542969 728.195312 249.007812 728.582031 248.425781 C 728.96875 247.847656 729.296875 247.234375 729.5625 246.589844 C 729.832031 245.945312 730.03125 245.28125 730.167969 244.597656 C 730.304688 243.914062 730.371094 243.222656 730.371094 242.523438 C 730.371094 241.828125 730.304688 241.136719 730.167969 240.453125 C 730.03125 239.765625 729.832031 239.101562 729.5625 238.457031 C 729.296875 237.8125 728.96875 237.199219 728.582031 236.621094 C 728.195312 236.039062 727.753906 235.503906 727.261719 235.011719 C 726.765625 234.515625 726.230469 234.078125 725.648438 233.691406 C 725.070312 233.300781 724.457031 232.972656 723.8125 232.707031 C 723.167969 232.441406 722.503906 232.238281 721.820312 232.101562 C 721.136719 231.964844 720.445312 231.898438 719.746094 231.898438 Z M 666.617188 274.402344 C 665.914062 274.390625 665.214844 274.449219 664.523438 274.578125 C 663.832031 274.707031 663.160156 274.902344 662.507812 275.167969 C 661.851562 275.429688 661.230469 275.753906 660.644531 276.140625 C 660.054688 276.523438 659.507812 276.964844 659.007812 277.460938 C 658.507812 277.953125 658.058594 278.492188 657.664062 279.074219 C 657.269531 279.660156 656.9375 280.277344 656.664062 280.925781 C 656.394531 281.574219 656.1875 282.246094 656.050781 282.933594 C 655.910156 283.625 655.84375 284.324219 655.84375 285.027344 C 655.84375 285.730469 655.910156 286.429688 656.050781 287.117188 C 656.1875 287.808594 656.394531 288.476562 656.664062 289.128906 C 656.9375 289.777344 657.269531 290.394531 657.664062 290.976562 C 658.058594 291.558594 658.507812 292.097656 659.007812 292.59375 C 659.507812 293.089844 660.054688 293.527344 660.644531 293.914062 C 661.230469 294.300781 661.851562 294.625 662.507812 294.886719 C 663.160156 295.148438 663.832031 295.34375 664.523438 295.472656 C 665.214844 295.601562 665.914062 295.660156 666.617188 295.652344 L 772.875 295.652344 C 773.578125 295.660156 774.277344 295.601562 774.96875 295.472656 C 775.660156 295.34375 776.332031 295.148438 776.988281 294.886719 C 777.640625 294.625 778.261719 294.300781 778.851562 293.914062 C 779.4375 293.527344 779.984375 293.089844 780.484375 292.59375 C 780.988281 292.097656 781.433594 291.558594 781.828125 290.976562 C 782.222656 290.394531 782.554688 289.777344 782.828125 289.128906 C 783.101562 288.476562 783.304688 287.808594 783.445312 287.117188 C 783.582031 286.429688 783.652344 285.730469 783.652344 285.027344 C 783.652344 284.324219 783.582031 283.625 783.445312 282.933594 C 783.304688 282.246094 783.101562 281.574219 782.828125 280.925781 C 782.554688 280.277344 782.222656 279.660156 781.828125 279.074219 C 781.433594 278.492188 780.988281 277.953125 780.484375 277.460938 C 779.984375 276.964844 779.4375 276.523438 778.851562 276.140625 C 778.261719 275.753906 777.640625 275.429688 776.988281 275.167969 C 776.332031 274.902344 775.660156 274.707031 774.96875 274.578125 C 774.277344 274.449219 773.578125 274.390625 772.875 274.402344 Z M 719.746094 316.902344 C 719.050781 316.902344 718.359375 316.972656 717.671875 317.105469 C 716.988281 317.242188 716.324219 317.445312 715.679688 317.710938 C 715.035156 317.980469 714.421875 318.304688 713.84375 318.695312 C 713.261719 319.082031 712.726562 319.523438 712.234375 320.015625 C 711.738281 320.507812 711.300781 321.046875 710.910156 321.625 C 710.523438 322.207031 710.195312 322.816406 709.929688 323.460938 C 709.664062 324.105469 709.460938 324.773438 709.324219 325.457031 C 709.1875 326.140625 709.121094 326.832031 709.121094 327.527344 C 709.121094 328.226562 709.1875 328.917969 709.324219 329.601562 C 709.460938 330.285156 709.664062 330.949219 709.929688 331.59375 C 710.195312 332.238281 710.523438 332.851562 710.910156 333.433594 C 711.300781 334.011719 711.738281 334.546875 712.234375 335.042969 C 712.726562 335.535156 713.261719 335.976562 713.84375 336.363281 C 714.421875 336.75 715.035156 337.078125 715.679688 337.34375 C 716.324219 337.613281 716.988281 337.8125 717.671875 337.949219 C 718.359375 338.085938 719.050781 338.15625 719.746094 338.15625 C 720.445312 338.15625 721.136719 338.085938 721.820312 337.949219 C 722.503906 337.8125 723.167969 337.613281 723.8125 337.34375 C 724.457031 337.078125 725.070312 336.75 725.648438 336.363281 C 726.230469 335.976562 726.765625 335.535156 727.261719 335.042969 C 727.753906 334.546875 728.195312 334.011719 728.582031 333.433594 C 728.96875 332.851562 729.296875 332.238281 729.5625 331.59375 C 729.832031 330.949219 730.03125 330.285156 730.167969 329.601562 C 730.304688 328.917969 730.371094 328.226562 730.371094 327.527344 C 730.371094 326.832031 730.304688 326.140625 730.167969 325.457031 C 730.03125 324.773438 729.832031 324.105469 729.5625 323.460938 C 729.296875 322.816406 728.96875 322.207031 728.582031 321.625 C 728.195312 321.046875 727.753906 320.507812 727.261719 320.015625 C 726.765625 319.523438 726.230469 319.082031 725.648438 318.695312 C 725.070312 318.304688 724.457031 317.980469 723.8125 317.710938 C 723.167969 317.445312 722.503906 317.242188 721.820312 317.105469 C 721.136719 316.972656 720.445312 316.902344 719.746094 316.902344 Z M 719.746094 316.902344 "/></g><g clip-rule="nonzero" clip-path="url(#6b6bdfacef)"><path style=" stroke:none;fill-rule:nonzero;fill:#ffffff;fill-opacity:1;" d="M 665.125 283.25 C 665.125 283.945312 665.191406 284.636719 665.328125 285.320312 C 665.464844 286.007812 665.664062 286.671875 665.933594 287.316406 C 666.199219 287.960938 666.527344 288.574219 666.914062 289.152344 C 667.300781 289.734375 667.742188 290.269531 668.234375 290.761719 C 668.730469 291.257812 669.265625 291.695312 669.84375 292.085938 C 670.425781 292.472656 671.039062 292.800781 671.683594 293.066406 C 672.328125 293.332031 672.992188 293.535156 673.675781 293.671875 C 674.359375 293.808594 675.050781 293.875 675.75 293.875 C 676.445312 293.875 677.136719 293.808594 677.820312 293.671875 C 678.507812 293.535156 679.171875 293.332031 679.816406 293.066406 C 680.460938 292.800781 681.070312 292.472656 681.652344 292.085938 C 682.230469 291.695312 682.769531 291.257812 683.261719 290.761719 C 683.753906 290.269531 684.195312 289.734375 684.582031 289.152344 C 684.972656 288.574219 685.296875 287.960938 685.566406 287.316406 C 685.832031 286.671875 686.035156 286.007812 686.171875 285.320312 C 686.304688 284.636719 686.375 283.945312 686.375 283.25 C 686.375 282.550781 686.304688 281.859375 686.171875 281.175781 C 686.035156 280.492188 685.832031 279.828125 685.566406 279.183594 C 685.296875 278.539062 684.972656 277.925781 684.582031 277.347656 C 684.195312 276.765625 683.753906 276.230469 683.261719 275.734375 C 682.769531 275.242188 682.230469 274.800781 681.652344 274.414062 C 681.070312 274.027344 680.460938 273.699219 679.816406 273.433594 C 679.171875 273.164062 678.507812 272.964844 677.820312 272.828125 C 677.136719 272.691406 676.445312 272.625 675.75 272.625 C 675.050781 272.625 674.359375 272.691406 673.675781 272.828125 C 672.992188 272.964844 672.328125 273.164062 671.683594 273.433594 C 671.039062 273.699219 670.425781 274.027344 669.84375 274.414062 C 669.265625 274.800781 668.730469 275.242188 668.234375 275.734375 C 667.742188 276.230469 667.300781 276.765625 666.914062 277.347656 C 666.527344 277.925781 666.199219 278.539062 665.933594 279.183594 C 665.664062 279.828125 665.464844 280.492188 665.328125 281.175781 C 665.191406 281.859375 665.125 282.550781 665.125 283.25 Z M 707.625 336.378906 C 707.617188 337.082031 707.675781 337.777344 707.804688 338.472656 C 707.933594 339.164062 708.128906 339.835938 708.390625 340.488281 C 708.652344 341.144531 708.976562 341.765625 709.363281 342.351562 C 709.75 342.941406 710.191406 343.488281 710.683594 343.988281 C 711.179688 344.488281 711.71875 344.9375 712.300781 345.332031 C 712.882812 345.726562 713.5 346.058594 714.148438 346.332031 C 714.800781 346.601562 715.46875 346.808594 716.160156 346.945312 C 716.851562 347.085938 717.546875 347.152344 718.25 347.152344 C 718.957031 347.152344 719.652344 347.085938 720.34375 346.945312 C 721.03125 346.808594 721.703125 346.601562 722.351562 346.332031 C 723 346.058594 723.617188 345.726562 724.203125 345.332031 C 724.785156 344.9375 725.324219 344.488281 725.816406 343.988281 C 726.3125 343.488281 726.753906 342.941406 727.136719 342.351562 C 727.523438 341.765625 727.847656 341.144531 728.113281 340.488281 C 728.375 339.835938 728.570312 339.164062 728.699219 338.472656 C 728.828125 337.777344 728.886719 337.082031 728.875 336.378906 L 728.875 230.121094 C 728.886719 229.417969 728.828125 228.71875 728.699219 228.027344 C 728.570312 227.335938 728.375 226.664062 728.113281 226.007812 C 727.847656 225.355469 727.523438 224.734375 727.136719 224.144531 C 726.753906 223.558594 726.3125 223.011719 725.816406 222.511719 C 725.324219 222.007812 724.785156 221.5625 724.203125 221.167969 C 723.617188 220.773438 723 220.441406 722.351562 220.167969 C 721.703125 219.894531 721.03125 219.691406 720.34375 219.550781 C 719.652344 219.414062 718.957031 219.34375 718.25 219.34375 C 717.546875 219.34375 716.851562 219.414062 716.160156 219.550781 C 715.46875 219.691406 714.800781 219.894531 714.148438 220.167969 C 713.5 220.441406 712.882812 220.773438 712.300781 221.167969 C 711.71875 221.5625 711.179688 222.007812 710.683594 222.511719 C 710.191406 223.011719 709.75 223.558594 709.363281 224.144531 C 708.976562 224.734375 708.652344 225.355469 708.390625 226.007812 C 708.128906 226.664062 707.933594 227.335938 707.804688 228.027344 C 707.675781 228.71875 707.617188 229.417969 707.625 230.121094 Z M 750.128906 283.25 C 750.128906 283.945312 750.195312 284.636719 750.332031 285.320312 C 750.46875 286.007812 750.667969 286.671875 750.9375 287.316406 C 751.203125 287.960938 751.53125 288.574219 751.917969 289.152344 C 752.304688 289.734375 752.746094 290.269531 753.238281 290.761719 C 753.734375 291.257812 754.269531 291.695312 754.851562 292.085938 C 755.429688 292.472656 756.042969 292.800781 756.6875 293.066406 C 757.332031 293.332031 757.996094 293.535156 758.679688 293.671875 C 759.363281 293.808594 760.054688 293.875 760.753906 293.875 C 761.449219 293.875 762.140625 293.808594 762.828125 293.671875 C 763.511719 293.535156 764.175781 293.332031 764.820312 293.066406 C 765.464844 292.800781 766.078125 292.472656 766.65625 292.085938 C 767.238281 291.695312 767.773438 291.257812 768.265625 290.761719 C 768.761719 290.269531 769.199219 289.734375 769.589844 289.152344 C 769.976562 288.574219 770.304688 287.960938 770.570312 287.316406 C 770.835938 286.671875 771.039062 286.007812 771.175781 285.320312 C 771.3125 284.636719 771.378906 283.945312 771.378906 283.25 C 771.378906 282.550781 771.3125 281.859375 771.175781 281.175781 C 771.039062 280.492188 770.835938 279.828125 770.570312 279.183594 C 770.304688 278.539062 769.976562 277.925781 769.589844 277.347656 C 769.199219 276.765625 768.761719 276.230469 768.265625 275.734375 C 767.773438 275.242188 767.238281 274.800781 766.65625 274.414062 C 766.078125 274.027344 765.464844 273.699219 764.820312 273.433594 C 764.175781 273.164062 763.511719 272.964844 762.828125 272.828125 C 762.140625 272.691406 761.449219 272.625 760.753906 272.625 C 760.054688 272.625 759.363281 272.691406 758.679688 272.828125 C 757.996094 272.964844 757.332031 273.164062 756.6875 273.433594 C 756.042969 273.699219 755.429688 274.027344 754.851562 274.414062 C 754.269531 274.800781 753.734375 275.242188 753.238281 275.734375 C 752.746094 276.230469 752.304688 276.765625 751.917969 277.347656 C 751.53125 277.925781 751.203125 278.539062 750.9375 279.183594 C 750.667969 279.828125 750.46875 280.492188 750.332031 281.175781 C 750.195312 281.859375 750.128906 282.550781 750.128906 283.25 Z M 750.128906 283.25 "/></g><g clip-rule="nonzero" clip-path="url(#c34edcf65a)"><path style=" stroke:none;fill-rule:nonzero;fill:#ffffff;fill-opacity:1;" d="M 668.398438 283.246094 C 668.398438 283.945312 668.464844 284.636719 668.601562 285.320312 C 668.738281 286.003906 668.941406 286.667969 669.207031 287.3125 C 669.472656 287.957031 669.800781 288.570312 670.1875 289.148438 C 670.578125 289.730469 671.015625 290.265625 671.511719 290.761719 C 672.003906 291.253906 672.539062 291.695312 673.121094 292.082031 C 673.699219 292.46875 674.3125 292.796875 674.957031 293.0625 C 675.601562 293.332031 676.265625 293.53125 676.949219 293.667969 C 677.636719 293.804688 678.324219 293.871094 679.023438 293.871094 C 679.722656 293.871094 680.414062 293.804688 681.097656 293.667969 C 681.78125 293.53125 682.445312 293.332031 683.089844 293.0625 C 683.734375 292.796875 684.347656 292.46875 684.925781 292.082031 C 685.507812 291.695312 686.042969 291.253906 686.539062 290.761719 C 687.03125 290.265625 687.472656 289.730469 687.859375 289.148438 C 688.246094 288.570312 688.574219 287.957031 688.839844 287.3125 C 689.109375 286.667969 689.308594 286.003906 689.445312 285.320312 C 689.582031 284.636719 689.648438 283.945312 689.648438 283.246094 C 689.648438 282.550781 689.582031 281.859375 689.445312 281.175781 C 689.308594 280.488281 689.109375 279.824219 688.839844 279.179688 C 688.574219 278.535156 688.246094 277.925781 687.859375 277.34375 C 687.472656 276.765625 687.03125 276.226562 686.539062 275.734375 C 686.042969 275.242188 685.507812 274.800781 684.925781 274.414062 C 684.347656 274.023438 683.734375 273.699219 683.089844 273.429688 C 682.445312 273.164062 681.78125 272.960938 681.097656 272.824219 C 680.414062 272.691406 679.722656 272.621094 679.023438 272.621094 C 678.324219 272.621094 677.636719 272.691406 676.949219 272.824219 C 676.265625 272.960938 675.601562 273.164062 674.957031 273.429688 C 674.3125 273.699219 673.699219 274.023438 673.121094 274.414062 C 672.539062 274.800781 672.003906 275.242188 671.511719 275.734375 C 671.015625 276.226562 670.578125 276.765625 670.1875 277.34375 C 669.800781 277.925781 669.472656 278.535156 669.207031 279.179688 C 668.941406 279.824219 668.738281 280.488281 668.601562 281.175781 C 668.464844 281.859375 668.398438 282.550781 668.398438 283.246094 Z M 710.902344 336.375 C 710.890625 337.078125 710.949219 337.777344 711.078125 338.46875 C 711.207031 339.160156 711.402344 339.835938 711.664062 340.488281 C 711.929688 341.140625 712.253906 341.761719 712.636719 342.351562 C 713.023438 342.941406 713.464844 343.484375 713.960938 343.984375 C 714.453125 344.488281 714.992188 344.933594 715.574219 345.328125 C 716.160156 345.722656 716.773438 346.054688 717.425781 346.328125 C 718.074219 346.601562 718.746094 346.804688 719.433594 346.945312 C 720.125 347.082031 720.820312 347.152344 721.527344 347.152344 C 722.230469 347.152344 722.925781 347.082031 723.617188 346.945312 C 724.308594 346.804688 724.976562 346.601562 725.628906 346.328125 C 726.277344 346.054688 726.894531 345.722656 727.476562 345.328125 C 728.058594 344.933594 728.597656 344.488281 729.09375 343.984375 C 729.585938 343.484375 730.027344 342.941406 730.414062 342.351562 C 730.800781 341.761719 731.125 341.140625 731.386719 340.488281 C 731.648438 339.835938 731.84375 339.160156 731.972656 338.46875 C 732.101562 337.777344 732.160156 337.078125 732.152344 336.375 L 732.152344 230.121094 C 732.160156 229.414062 732.101562 228.71875 731.972656 228.023438 C 731.84375 227.332031 731.648438 226.660156 731.386719 226.007812 C 731.125 225.351562 730.800781 224.734375 730.414062 224.144531 C 730.027344 223.554688 729.585938 223.007812 729.09375 222.507812 C 728.597656 222.007812 728.058594 221.558594 727.476562 221.164062 C 726.894531 220.769531 726.277344 220.4375 725.628906 220.164062 C 724.976562 219.894531 724.308594 219.6875 723.617188 219.550781 C 722.925781 219.410156 722.230469 219.34375 721.527344 219.34375 C 720.820312 219.34375 720.125 219.410156 719.433594 219.550781 C 718.746094 219.6875 718.074219 219.894531 717.425781 220.164062 C 716.773438 220.4375 716.160156 220.769531 715.574219 221.164062 C 714.992188 221.558594 714.453125 222.007812 713.960938 222.507812 C 713.464844 223.007812 713.023438 223.554688 712.636719 224.144531 C 712.253906 224.734375 711.929688 225.351562 711.664062 226.007812 C 711.402344 226.660156 711.207031 227.332031 711.078125 228.023438 C 710.949219 228.71875 710.890625 229.414062 710.902344 230.121094 Z M 753.402344 283.246094 C 753.402344 283.945312 753.472656 284.636719 753.605469 285.320312 C 753.742188 286.003906 753.945312 286.667969 754.210938 287.3125 C 754.480469 287.957031 754.804688 288.570312 755.195312 289.148438 C 755.582031 289.730469 756.023438 290.265625 756.515625 290.761719 C 757.007812 291.253906 757.546875 291.695312 758.125 292.082031 C 758.707031 292.46875 759.316406 292.796875 759.960938 293.0625 C 760.605469 293.332031 761.269531 293.53125 761.957031 293.667969 C 762.640625 293.804688 763.332031 293.871094 764.027344 293.871094 C 764.726562 293.871094 765.417969 293.804688 766.101562 293.667969 C 766.785156 293.53125 767.449219 293.332031 768.09375 293.0625 C 768.738281 292.796875 769.351562 292.46875 769.929688 292.082031 C 770.511719 291.695312 771.046875 291.253906 771.542969 290.761719 C 772.035156 290.265625 772.476562 289.730469 772.863281 289.148438 C 773.25 288.570312 773.578125 287.957031 773.84375 287.3125 C 774.113281 286.667969 774.3125 286.003906 774.449219 285.320312 C 774.585938 284.636719 774.652344 283.945312 774.652344 283.246094 C 774.652344 282.550781 774.585938 281.859375 774.449219 281.175781 C 774.3125 280.488281 774.113281 279.824219 773.84375 279.179688 C 773.578125 278.535156 773.25 277.925781 772.863281 277.34375 C 772.476562 276.765625 772.035156 276.226562 771.542969 275.734375 C 771.046875 275.242188 770.511719 274.800781 769.929688 274.414062 C 769.351562 274.023438 768.738281 273.699219 768.09375 273.429688 C 767.449219 273.164062 766.785156 272.960938 766.101562 272.824219 C 765.417969 272.691406 764.726562 272.621094 764.027344 272.621094 C 763.332031 272.621094 762.640625 272.691406 761.957031 272.824219 C 761.269531 272.960938 760.605469 273.164062 759.960938 273.429688 C 759.316406 273.699219 758.707031 274.023438 758.125 274.414062 C 757.546875 274.800781 757.007812 275.242188 756.515625 275.734375 C 756.023438 276.226562 755.582031 276.765625 755.195312 277.34375 C 754.804688 277.925781 754.480469 278.535156 754.210938 279.179688 C 753.945312 279.824219 753.742188 280.488281 753.605469 281.175781 C 753.472656 281.859375 753.402344 282.550781 753.402344 283.246094 Z M 753.402344 283.246094 "/></g><g clip-rule="nonzero" clip-path="url(#6fe7a95f07)"><g clip-rule="nonzero" clip-path="url(#c6b19e24cd)"><g clip-rule="nonzero" clip-path="url(#4dc55c4cc3)"><path style=" stroke:none;fill-rule:nonzero;fill:#ffffff;fill-opacity:1;" d="M 562.863281 367.730469 C 562.398438 368.199219 561.980469 368.707031 561.609375 369.257812 C 561.242188 369.808594 560.933594 370.390625 560.679688 371 C 560.425781 371.613281 560.234375 372.242188 560.105469 372.894531 C 559.976562 373.542969 559.910156 374.199219 559.910156 374.859375 C 559.910156 375.523438 559.976562 376.179688 560.105469 376.828125 C 560.234375 377.476562 560.425781 378.109375 560.679688 378.71875 C 560.933594 379.332031 561.242188 379.910156 561.609375 380.460938 C 561.980469 381.011719 562.398438 381.523438 562.863281 381.992188 C 563.332031 382.457031 563.84375 382.875 564.394531 383.246094 C 564.945312 383.613281 565.523438 383.921875 566.136719 384.175781 C 566.746094 384.429688 567.378906 384.621094 568.027344 384.75 C 568.675781 384.878906 569.332031 384.945312 569.996094 384.945312 C 570.65625 384.945312 571.3125 384.878906 571.960938 384.75 C 572.613281 384.621094 573.242188 384.429688 573.855469 384.175781 C 574.464844 383.921875 575.046875 383.613281 575.597656 383.246094 C 576.148438 382.875 576.65625 382.457031 577.125 381.992188 C 577.59375 381.523438 578.011719 381.011719 578.378906 380.460938 C 578.746094 379.910156 579.058594 379.332031 579.3125 378.71875 C 579.566406 378.109375 579.757812 377.476562 579.886719 376.828125 C 580.015625 376.179688 580.078125 375.523438 580.078125 374.859375 C 580.078125 374.199219 580.015625 373.542969 579.886719 372.894531 C 579.757812 372.242188 579.566406 371.613281 579.3125 371 C 579.058594 370.390625 578.746094 369.808594 578.378906 369.257812 C 578.011719 368.707031 577.59375 368.199219 577.125 367.730469 C 576.65625 367.261719 576.148438 366.84375 575.597656 366.476562 C 575.046875 366.109375 574.464844 365.796875 573.855469 365.542969 C 573.242188 365.289062 572.613281 365.097656 571.960938 364.96875 C 571.3125 364.839844 570.65625 364.777344 569.996094 364.777344 C 569.332031 364.777344 568.675781 364.839844 568.027344 364.96875 C 567.378906 365.097656 566.746094 365.289062 566.136719 365.542969 C 565.523438 365.796875 564.945312 366.109375 564.394531 366.476562 C 563.84375 366.84375 563.332031 367.261719 562.863281 367.730469 Z M 555.734375 431.902344 C 555.253906 432.367188 554.828125 432.878906 554.449219 433.429688 C 554.070312 433.980469 553.75 434.5625 553.488281 435.175781 C 553.226562 435.789062 553.027344 436.425781 552.890625 437.078125 C 552.753906 437.734375 552.683594 438.394531 552.679688 439.0625 C 552.675781 439.730469 552.734375 440.394531 552.863281 441.050781 C 552.988281 441.703125 553.179688 442.34375 553.433594 442.960938 C 553.6875 443.578125 554 444.164062 554.367188 444.722656 C 554.738281 445.277344 555.160156 445.792969 555.632812 446.265625 C 556.105469 446.738281 556.621094 447.160156 557.175781 447.527344 C 557.730469 447.898438 558.320312 448.210938 558.9375 448.464844 C 559.554688 448.71875 560.191406 448.910156 560.847656 449.035156 C 561.503906 449.164062 562.167969 449.222656 562.835938 449.21875 C 563.503906 449.214844 564.164062 449.144531 564.820312 449.007812 C 565.472656 448.871094 566.105469 448.671875 566.722656 448.410156 C 567.335938 448.148438 567.917969 447.828125 568.46875 447.449219 C 569.019531 447.070312 569.53125 446.644531 569.996094 446.164062 L 641.296875 374.859375 C 641.777344 374.394531 642.207031 373.886719 642.585938 373.335938 C 642.960938 372.785156 643.28125 372.203125 643.542969 371.585938 C 643.808594 370.972656 644.007812 370.339844 644.140625 369.683594 C 644.277344 369.03125 644.347656 368.367188 644.351562 367.699219 C 644.359375 367.03125 644.296875 366.371094 644.171875 365.714844 C 644.042969 365.058594 643.851562 364.421875 643.601562 363.804688 C 643.347656 363.183594 643.035156 362.597656 642.664062 362.042969 C 642.292969 361.484375 641.871094 360.96875 641.398438 360.5 C 640.925781 360.027344 640.414062 359.605469 639.855469 359.234375 C 639.300781 358.863281 638.714844 358.550781 638.09375 358.296875 C 637.476562 358.046875 636.839844 357.855469 636.183594 357.726562 C 635.527344 357.601562 634.867188 357.539062 634.199219 357.542969 C 633.53125 357.550781 632.867188 357.621094 632.214844 357.757812 C 631.558594 357.890625 630.925781 358.089844 630.3125 358.355469 C 629.695312 358.617188 629.113281 358.9375 628.5625 359.3125 C 628.011719 359.691406 627.503906 360.121094 627.039062 360.601562 Z M 619.90625 424.773438 C 619.4375 425.242188 619.019531 425.75 618.652344 426.300781 C 618.285156 426.851562 617.976562 427.433594 617.722656 428.042969 C 617.46875 428.65625 617.277344 429.285156 617.148438 429.9375 C 617.019531 430.585938 616.953125 431.242188 616.953125 431.902344 C 616.953125 432.566406 617.019531 433.222656 617.148438 433.871094 C 617.277344 434.519531 617.46875 435.148438 617.722656 435.761719 C 617.976562 436.375 618.285156 436.953125 618.652344 437.503906 C 619.019531 438.054688 619.4375 438.566406 619.90625 439.035156 C 620.375 439.5 620.886719 439.917969 621.433594 440.289062 C 621.984375 440.65625 622.566406 440.964844 623.179688 441.21875 C 623.789062 441.472656 624.421875 441.664062 625.070312 441.792969 C 625.71875 441.921875 626.375 441.988281 627.039062 441.988281 C 627.699219 441.988281 628.355469 441.921875 629.003906 441.792969 C 629.65625 441.664062 630.285156 441.472656 630.898438 441.21875 C 631.507812 440.964844 632.089844 440.65625 632.640625 440.289062 C 633.191406 439.917969 633.699219 439.5 634.167969 439.035156 C 634.636719 438.566406 635.054688 438.054688 635.421875 437.503906 C 635.789062 436.953125 636.101562 436.375 636.355469 435.761719 C 636.605469 435.148438 636.796875 434.519531 636.929688 433.871094 C 637.058594 433.222656 637.121094 432.566406 637.121094 431.902344 C 637.121094 431.242188 637.058594 430.585938 636.929688 429.9375 C 636.796875 429.285156 636.605469 428.65625 636.355469 428.042969 C 636.101562 427.433594 635.789062 426.851562 635.421875 426.300781 C 635.054688 425.75 634.636719 425.242188 634.167969 424.773438 C 633.699219 424.304688 633.191406 423.886719 632.640625 423.519531 C 632.089844 423.152344 631.507812 422.839844 630.898438 422.585938 C 630.285156 422.332031 629.65625 422.140625 629.003906 422.011719 C 628.355469 421.882812 627.699219 421.820312 627.039062 421.820312 C 626.375 421.820312 625.71875 421.882812 625.070312 422.011719 C 624.421875 422.140625 623.789062 422.332031 623.179688 422.585938 C 622.566406 422.839844 621.984375 423.152344 621.433594 423.519531 C 620.886719 423.886719 620.375 424.304688 619.90625 424.773438 Z M 619.90625 424.773438 "/></g></g></g><g clip-rule="nonzero" clip-path="url(#04014b623d)"><g clip-rule="nonzero" clip-path="url(#7ab6a04b56)"><g clip-rule="nonzero" clip-path="url(#9d7205c1ba)"><path style=" stroke:none;fill-rule:nonzero;fill:#ffffff;fill-opacity:1;" d="M 565.0625 369.925781 C 564.59375 370.394531 564.175781 370.902344 563.808594 371.453125 C 563.4375 372.003906 563.128906 372.585938 562.875 373.199219 C 562.621094 373.808594 562.429688 374.441406 562.300781 375.089844 C 562.171875 375.738281 562.109375 376.394531 562.109375 377.054688 C 562.109375 377.71875 562.171875 378.375 562.300781 379.023438 C 562.429688 379.671875 562.621094 380.304688 562.875 380.914062 C 563.128906 381.527344 563.4375 382.109375 563.808594 382.660156 C 564.175781 383.210938 564.59375 383.71875 565.0625 384.1875 C 565.53125 384.65625 566.039062 385.074219 566.589844 385.441406 C 567.140625 385.808594 567.722656 386.121094 568.332031 386.371094 C 568.945312 386.625 569.574219 386.816406 570.222656 386.945312 C 570.875 387.074219 571.53125 387.140625 572.191406 387.140625 C 572.855469 387.140625 573.507812 387.074219 574.160156 386.945312 C 574.808594 386.816406 575.4375 386.625 576.050781 386.371094 C 576.660156 386.121094 577.242188 385.808594 577.792969 385.441406 C 578.34375 385.074219 578.855469 384.65625 579.320312 384.1875 C 579.789062 383.71875 580.207031 383.210938 580.574219 382.660156 C 580.945312 382.109375 581.253906 381.527344 581.507812 380.914062 C 581.761719 380.304688 581.953125 379.671875 582.082031 379.023438 C 582.210938 378.375 582.273438 377.71875 582.273438 377.054688 C 582.273438 376.394531 582.210938 375.738281 582.082031 375.089844 C 581.953125 374.441406 581.761719 373.808594 581.507812 373.199219 C 581.253906 372.585938 580.945312 372.003906 580.574219 371.453125 C 580.207031 370.902344 579.789062 370.394531 579.320312 369.925781 C 578.855469 369.457031 578.34375 369.039062 577.792969 368.671875 C 577.242188 368.304688 576.660156 367.992188 576.050781 367.742188 C 575.4375 367.488281 574.808594 367.296875 574.160156 367.167969 C 573.507812 367.039062 572.855469 366.972656 572.191406 366.972656 C 571.53125 366.972656 570.875 367.039062 570.222656 367.167969 C 569.574219 367.296875 568.945312 367.488281 568.332031 367.742188 C 567.722656 367.992188 567.140625 368.304688 566.589844 368.671875 C 566.039062 369.039062 565.53125 369.457031 565.0625 369.925781 Z M 557.929688 434.097656 C 557.453125 434.566406 557.023438 435.074219 556.644531 435.625 C 556.265625 436.175781 555.945312 436.757812 555.683594 437.371094 C 555.421875 437.988281 555.222656 438.621094 555.085938 439.277344 C 554.949219 439.929688 554.878906 440.589844 554.875 441.257812 C 554.871094 441.925781 554.933594 442.589844 555.058594 443.246094 C 555.1875 443.902344 555.375 444.539062 555.628906 445.15625 C 555.882812 445.773438 556.195312 446.363281 556.566406 446.917969 C 556.933594 447.472656 557.355469 447.988281 557.828125 448.460938 C 558.300781 448.933594 558.816406 449.355469 559.371094 449.726562 C 559.929688 450.09375 560.515625 450.40625 561.132812 450.660156 C 561.753906 450.914062 562.390625 451.105469 563.046875 451.230469 C 563.703125 451.359375 564.363281 451.417969 565.03125 451.414062 C 565.699219 451.410156 566.359375 451.339844 567.015625 451.203125 C 567.667969 451.066406 568.304688 450.867188 568.917969 450.605469 C 569.53125 450.34375 570.117188 450.023438 570.667969 449.644531 C 571.21875 449.265625 571.726562 448.839844 572.191406 448.359375 L 643.496094 377.054688 C 643.972656 376.589844 644.402344 376.082031 644.78125 375.53125 C 645.160156 374.980469 645.480469 374.398438 645.742188 373.785156 C 646.003906 373.167969 646.203125 372.535156 646.339844 371.878906 C 646.472656 371.226562 646.546875 370.566406 646.550781 369.898438 C 646.554688 369.230469 646.492188 368.566406 646.367188 367.910156 C 646.238281 367.253906 646.050781 366.617188 645.796875 366 C 645.542969 365.382812 645.230469 364.792969 644.859375 364.238281 C 644.488281 363.679688 644.070312 363.167969 643.597656 362.695312 C 643.125 362.222656 642.609375 361.800781 642.054688 361.429688 C 641.496094 361.058594 640.910156 360.75 640.292969 360.496094 C 639.671875 360.242188 639.035156 360.050781 638.378906 359.925781 C 637.722656 359.796875 637.0625 359.734375 636.394531 359.742188 C 635.726562 359.746094 635.066406 359.816406 634.410156 359.953125 C 633.757812 360.089844 633.121094 360.289062 632.507812 360.550781 C 631.894531 360.8125 631.308594 361.132812 630.757812 361.511719 C 630.207031 361.886719 629.699219 362.316406 629.234375 362.796875 Z M 622.105469 426.96875 C 621.636719 427.4375 621.21875 427.945312 620.851562 428.496094 C 620.480469 429.046875 620.171875 429.628906 619.917969 430.242188 C 619.664062 430.851562 619.472656 431.484375 619.34375 432.132812 C 619.214844 432.78125 619.148438 433.4375 619.148438 434.097656 C 619.148438 434.761719 619.214844 435.417969 619.34375 436.066406 C 619.472656 436.714844 619.664062 437.347656 619.917969 437.957031 C 620.171875 438.570312 620.480469 439.152344 620.851562 439.703125 C 621.21875 440.25 621.636719 440.761719 622.105469 441.230469 C 622.570312 441.699219 623.082031 442.117188 623.632812 442.484375 C 624.183594 442.851562 624.761719 443.160156 625.375 443.414062 C 625.988281 443.667969 626.617188 443.859375 627.265625 443.988281 C 627.917969 444.117188 628.570312 444.183594 629.234375 444.183594 C 629.894531 444.183594 630.550781 444.117188 631.203125 443.988281 C 631.851562 443.859375 632.480469 443.667969 633.09375 443.414062 C 633.703125 443.160156 634.285156 442.851562 634.835938 442.484375 C 635.386719 442.117188 635.894531 441.699219 636.363281 441.230469 C 636.832031 440.761719 637.25 440.25 637.617188 439.703125 C 637.984375 439.152344 638.296875 438.570312 638.550781 437.957031 C 638.804688 437.347656 638.996094 436.714844 639.125 436.066406 C 639.253906 435.417969 639.316406 434.761719 639.316406 434.097656 C 639.316406 433.4375 639.253906 432.78125 639.125 432.132812 C 638.996094 431.484375 638.804688 430.851562 638.550781 430.242188 C 638.296875 429.628906 637.984375 429.046875 637.617188 428.496094 C 637.25 427.945312 636.832031 427.4375 636.363281 426.96875 C 635.894531 426.5 635.386719 426.082031 634.835938 425.714844 C 634.285156 425.347656 633.703125 425.035156 633.09375 424.78125 C 632.480469 424.53125 631.851562 424.339844 631.203125 424.210938 C 630.550781 424.078125 629.894531 424.015625 629.234375 424.015625 C 628.570312 424.015625 627.917969 424.078125 627.265625 424.210938 C 626.617188 424.339844 625.988281 424.53125 625.375 424.78125 C 624.761719 425.035156 624.183594 425.347656 623.632812 425.714844 C 623.082031 426.082031 622.570312 426.5 622.105469 426.96875 Z M 622.105469 426.96875 "/></g></g></g><g clip-rule="nonzero" clip-path="url(#bc6ce73c9a)"><g clip-rule="nonzero" clip-path="url(#daeec541e2)"><g clip-rule="nonzero" clip-path="url(#933ba4605f)"><path style=" stroke:none;fill-rule:nonzero;fill:#ffffff;fill-opacity:1;" d="M 562.863281 441.039062 C 563.332031 441.507812 563.84375 441.925781 564.394531 442.292969 C 564.945312 442.664062 565.523438 442.972656 566.136719 443.226562 C 566.75 443.480469 567.378906 443.671875 568.027344 443.800781 C 568.675781 443.929688 569.332031 443.992188 569.996094 443.992188 C 570.65625 443.992188 571.3125 443.929688 571.960938 443.800781 C 572.613281 443.671875 573.242188 443.480469 573.855469 443.226562 C 574.464844 442.972656 575.046875 442.664062 575.597656 442.292969 C 576.148438 441.925781 576.65625 441.507812 577.125 441.039062 C 577.59375 440.570312 578.011719 440.0625 578.378906 439.511719 C 578.746094 438.960938 579.058594 438.378906 579.3125 437.769531 C 579.566406 437.15625 579.757812 436.527344 579.886719 435.878906 C 580.015625 435.226562 580.078125 434.570312 580.078125 433.910156 C 580.078125 433.246094 580.015625 432.59375 579.886719 431.941406 C 579.757812 431.292969 579.566406 430.664062 579.3125 430.050781 C 579.058594 429.4375 578.746094 428.859375 578.378906 428.308594 C 578.011719 427.757812 577.59375 427.246094 577.125 426.78125 C 576.65625 426.3125 576.148438 425.894531 575.597656 425.527344 C 575.046875 425.15625 574.464844 424.847656 573.855469 424.59375 C 573.242188 424.339844 572.613281 424.148438 571.960938 424.019531 C 571.3125 423.890625 570.65625 423.828125 569.996094 423.828125 C 569.332031 423.828125 568.675781 423.890625 568.027344 424.019531 C 567.378906 424.148438 566.75 424.339844 566.136719 424.59375 C 565.523438 424.847656 564.945312 425.15625 564.394531 425.527344 C 563.84375 425.894531 563.332031 426.3125 562.863281 426.78125 C 562.398438 427.246094 561.980469 427.757812 561.609375 428.308594 C 561.242188 428.859375 560.933594 429.4375 560.679688 430.050781 C 560.425781 430.664062 560.234375 431.292969 560.105469 431.941406 C 559.976562 432.59375 559.910156 433.246094 559.910156 433.910156 C 559.910156 434.570312 559.976562 435.226562 560.105469 435.878906 C 560.234375 436.527344 560.425781 437.15625 560.679688 437.769531 C 560.933594 438.378906 561.242188 438.960938 561.609375 439.511719 C 561.980469 440.0625 562.398438 440.570312 562.863281 441.039062 Z M 627.039062 448.171875 C 627.503906 448.648438 628.011719 449.078125 628.5625 449.457031 C 629.113281 449.835938 629.695312 450.15625 630.3125 450.417969 C 630.925781 450.679688 631.558594 450.878906 632.214844 451.015625 C 632.867188 451.152344 633.53125 451.222656 634.199219 451.226562 C 634.867188 451.230469 635.527344 451.167969 636.183594 451.042969 C 636.839844 450.914062 637.476562 450.726562 638.09375 450.472656 C 638.714844 450.21875 639.300781 449.90625 639.855469 449.535156 C 640.414062 449.164062 640.925781 448.746094 641.398438 448.273438 C 641.871094 447.800781 642.292969 447.285156 642.664062 446.730469 C 643.035156 446.171875 643.347656 445.585938 643.601562 444.96875 C 643.851562 444.347656 644.042969 443.710938 644.171875 443.054688 C 644.296875 442.398438 644.359375 441.738281 644.355469 441.070312 C 644.347656 440.402344 644.277344 439.742188 644.140625 439.085938 C 644.007812 438.433594 643.808594 437.796875 643.542969 437.183594 C 643.28125 436.570312 642.960938 435.984375 642.585938 435.433594 C 642.207031 434.882812 641.777344 434.375 641.296875 433.910156 L 569.996094 362.605469 C 569.53125 362.128906 569.019531 361.699219 568.46875 361.320312 C 567.917969 360.941406 567.335938 360.621094 566.722656 360.359375 C 566.109375 360.097656 565.472656 359.898438 564.820312 359.761719 C 564.164062 359.628906 563.503906 359.554688 562.835938 359.550781 C 562.167969 359.546875 561.503906 359.609375 560.847656 359.734375 C 560.191406 359.863281 559.554688 360.050781 558.9375 360.304688 C 558.320312 360.558594 557.734375 360.871094 557.175781 361.242188 C 556.621094 361.613281 556.105469 362.03125 555.632812 362.503906 C 555.160156 362.976562 554.738281 363.492188 554.367188 364.046875 C 554 364.605469 553.6875 365.191406 553.433594 365.808594 C 553.179688 366.429688 552.988281 367.066406 552.863281 367.722656 C 552.734375 368.378906 552.675781 369.039062 552.679688 369.707031 C 552.683594 370.375 552.753906 371.035156 552.890625 371.691406 C 553.027344 372.34375 553.226562 372.980469 553.488281 373.59375 C 553.75 374.207031 554.070312 374.792969 554.449219 375.34375 C 554.828125 375.894531 555.253906 376.402344 555.734375 376.867188 Z M 619.90625 383.996094 C 620.375 384.464844 620.886719 384.882812 621.4375 385.25 C 621.984375 385.621094 622.566406 385.929688 623.179688 386.183594 C 623.789062 386.4375 624.421875 386.628906 625.070312 386.757812 C 625.71875 386.886719 626.375 386.953125 627.039062 386.953125 C 627.699219 386.953125 628.355469 386.886719 629.003906 386.757812 C 629.65625 386.628906 630.285156 386.4375 630.898438 386.183594 C 631.507812 385.929688 632.089844 385.621094 632.640625 385.25 C 633.191406 384.882812 633.699219 384.464844 634.167969 383.996094 C 634.636719 383.53125 635.054688 383.019531 635.421875 382.46875 C 635.789062 381.917969 636.101562 381.339844 636.355469 380.726562 C 636.609375 380.113281 636.796875 379.484375 636.929688 378.835938 C 637.058594 378.183594 637.121094 377.53125 637.121094 376.867188 C 637.121094 376.207031 637.058594 375.550781 636.929688 374.898438 C 636.796875 374.25 636.609375 373.621094 636.355469 373.007812 C 636.101562 372.398438 635.789062 371.816406 635.421875 371.265625 C 635.054688 370.714844 634.636719 370.207031 634.167969 369.738281 C 633.699219 369.269531 633.191406 368.851562 632.640625 368.484375 C 632.089844 368.117188 631.507812 367.804688 630.898438 367.550781 C 630.285156 367.296875 629.65625 367.105469 629.003906 366.976562 C 628.355469 366.847656 627.699219 366.785156 627.039062 366.785156 C 626.375 366.785156 625.71875 366.847656 625.070312 366.976562 C 624.421875 367.105469 623.789062 367.296875 623.179688 367.550781 C 622.566406 367.804688 621.984375 368.117188 621.4375 368.484375 C 620.886719 368.851562 620.375 369.269531 619.90625 369.738281 C 619.4375 370.207031 619.019531 370.714844 618.652344 371.265625 C 618.285156 371.816406 617.976562 372.398438 617.722656 373.007812 C 617.46875 373.621094 617.277344 374.25 617.148438 374.898438 C 617.019531 375.550781 616.953125 376.207031 616.953125 376.867188 C 616.953125 377.53125 617.019531 378.183594 617.148438 378.835938 C 617.277344 379.484375 617.46875 380.113281 617.722656 380.726562 C 617.976562 381.339844 618.285156 381.917969 618.652344 382.46875 C 619.019531 383.019531 619.4375 383.53125 619.90625 383.996094 Z M 619.90625 383.996094 "/></g></g></g><g clip-rule="nonzero" clip-path="url(#06920f6412)"><g clip-rule="nonzero" clip-path="url(#8eaed48faf)"><g clip-rule="nonzero" clip-path="url(#5ae3766d20)"><path style=" stroke:none;fill-rule:nonzero;fill:#ffffff;fill-opacity:1;" d="M 565.0625 438.839844 C 565.53125 439.308594 566.039062 439.726562 566.589844 440.09375 C 567.140625 440.464844 567.722656 440.773438 568.332031 441.027344 C 568.945312 441.28125 569.574219 441.472656 570.222656 441.601562 C 570.875 441.730469 571.53125 441.792969 572.191406 441.792969 C 572.855469 441.792969 573.507812 441.730469 574.160156 441.601562 C 574.808594 441.472656 575.4375 441.28125 576.050781 441.027344 C 576.660156 440.773438 577.242188 440.464844 577.792969 440.09375 C 578.34375 439.726562 578.855469 439.308594 579.320312 438.839844 C 579.789062 438.375 580.207031 437.863281 580.574219 437.3125 C 580.945312 436.761719 581.253906 436.179688 581.507812 435.570312 C 581.761719 434.957031 581.953125 434.328125 582.082031 433.679688 C 582.210938 433.027344 582.273438 432.375 582.273438 431.710938 C 582.273438 431.050781 582.210938 430.394531 582.082031 429.742188 C 581.953125 429.09375 581.761719 428.464844 581.507812 427.851562 C 581.253906 427.242188 580.945312 426.660156 580.574219 426.109375 C 580.207031 425.558594 579.789062 425.050781 579.320312 424.582031 C 578.855469 424.113281 578.34375 423.695312 577.792969 423.328125 C 577.242188 422.957031 576.660156 422.648438 576.050781 422.394531 C 575.4375 422.140625 574.808594 421.949219 574.160156 421.820312 C 573.507812 421.691406 572.855469 421.628906 572.191406 421.628906 C 571.53125 421.628906 570.875 421.691406 570.222656 421.820312 C 569.574219 421.949219 568.945312 422.140625 568.332031 422.394531 C 567.722656 422.648438 567.140625 422.957031 566.589844 423.328125 C 566.039062 423.695312 565.53125 424.113281 565.0625 424.582031 C 564.59375 425.050781 564.175781 425.558594 563.808594 426.109375 C 563.4375 426.660156 563.128906 427.242188 562.875 427.851562 C 562.621094 428.464844 562.429688 429.09375 562.300781 429.742188 C 562.171875 430.394531 562.109375 431.050781 562.109375 431.710938 C 562.109375 432.375 562.171875 433.027344 562.300781 433.679688 C 562.429688 434.328125 562.621094 434.957031 562.875 435.570312 C 563.128906 436.179688 563.4375 436.761719 563.808594 437.3125 C 564.175781 437.863281 564.59375 438.375 565.0625 438.839844 Z M 629.234375 445.972656 C 629.699219 446.449219 630.207031 446.878906 630.757812 447.257812 C 631.308594 447.636719 631.894531 447.957031 632.507812 448.21875 C 633.121094 448.480469 633.757812 448.679688 634.410156 448.816406 C 635.066406 448.953125 635.726562 449.023438 636.394531 449.027344 C 637.0625 449.03125 637.722656 448.96875 638.378906 448.84375 C 639.035156 448.714844 639.671875 448.527344 640.292969 448.273438 C 640.910156 448.019531 641.496094 447.707031 642.054688 447.335938 C 642.609375 446.96875 643.125 446.546875 643.597656 446.074219 C 644.070312 445.601562 644.488281 445.085938 644.859375 444.53125 C 645.230469 443.972656 645.542969 443.386719 645.796875 442.769531 C 646.050781 442.148438 646.238281 441.511719 646.367188 440.855469 C 646.492188 440.199219 646.554688 439.539062 646.550781 438.871094 C 646.546875 438.203125 646.472656 437.542969 646.339844 436.886719 C 646.203125 436.234375 646.003906 435.597656 645.742188 434.984375 C 645.480469 434.371094 645.160156 433.785156 644.78125 433.234375 C 644.402344 432.683594 643.972656 432.175781 643.496094 431.710938 L 572.191406 360.40625 C 571.726562 359.929688 571.21875 359.5 570.667969 359.121094 C 570.117188 358.742188 569.53125 358.421875 568.917969 358.160156 C 568.304688 357.898438 567.667969 357.699219 567.015625 357.5625 C 566.359375 357.429688 565.699219 357.359375 565.03125 357.351562 C 564.363281 357.347656 563.703125 357.410156 563.046875 357.535156 C 562.390625 357.664062 561.753906 357.851562 561.132812 358.105469 C 560.515625 358.359375 559.929688 358.671875 559.371094 359.042969 C 558.816406 359.414062 558.300781 359.832031 557.828125 360.304688 C 557.355469 360.777344 556.933594 361.292969 556.566406 361.847656 C 556.195312 362.40625 555.882812 362.992188 555.628906 363.609375 C 555.375 364.230469 555.1875 364.867188 555.058594 365.523438 C 554.933594 366.179688 554.871094 366.839844 554.875 367.507812 C 554.878906 368.175781 554.949219 368.835938 555.085938 369.492188 C 555.222656 370.144531 555.421875 370.78125 555.683594 371.394531 C 555.945312 372.007812 556.265625 372.59375 556.644531 373.144531 C 557.023438 373.695312 557.453125 374.203125 557.929688 374.667969 Z M 622.105469 381.796875 C 622.570312 382.265625 623.082031 382.683594 623.632812 383.054688 C 624.183594 383.421875 624.761719 383.730469 625.375 383.984375 C 625.988281 384.238281 626.617188 384.429688 627.265625 384.558594 C 627.917969 384.6875 628.570312 384.753906 629.234375 384.753906 C 629.894531 384.753906 630.550781 384.6875 631.203125 384.558594 C 631.851562 384.429688 632.480469 384.238281 633.09375 383.984375 C 633.703125 383.730469 634.285156 383.421875 634.835938 383.054688 C 635.386719 382.683594 635.894531 382.265625 636.363281 381.796875 C 636.832031 381.332031 637.25 380.820312 637.617188 380.269531 C 637.984375 379.71875 638.296875 379.140625 638.550781 378.527344 C 638.804688 377.914062 638.996094 377.285156 639.125 376.636719 C 639.253906 375.984375 639.316406 375.332031 639.316406 374.667969 C 639.316406 374.007812 639.253906 373.351562 639.125 372.699219 C 638.996094 372.050781 638.804688 371.421875 638.550781 370.808594 C 638.296875 370.199219 637.984375 369.617188 637.617188 369.066406 C 637.25 368.515625 636.832031 368.007812 636.363281 367.539062 C 635.894531 367.070312 635.386719 366.652344 634.835938 366.285156 C 634.285156 365.917969 633.703125 365.605469 633.09375 365.351562 C 632.480469 365.097656 631.851562 364.90625 631.203125 364.777344 C 630.550781 364.648438 629.894531 364.585938 629.234375 364.585938 C 628.570312 364.585938 627.917969 364.648438 627.265625 364.777344 C 626.617188 364.90625 625.988281 365.097656 625.375 365.351562 C 624.761719 365.605469 624.183594 365.917969 623.632812 366.285156 C 623.082031 366.652344 622.570312 367.070312 622.105469 367.539062 C 621.636719 368.007812 621.21875 368.515625 620.851562 369.066406 C 620.480469 369.617188 620.171875 370.199219 619.917969 370.808594 C 619.664062 371.421875 619.472656 372.050781 619.34375 372.699219 C 619.214844 373.351562 619.148438 374.007812 619.148438 374.667969 C 619.148438 375.332031 619.214844 375.984375 619.34375 376.636719 C 619.472656 377.285156 619.664062 377.914062 619.917969 378.527344 C 620.171875 379.140625 620.480469 379.71875 620.851562 380.269531 C 621.21875 380.820312 621.636719 381.332031 622.105469 381.796875 Z M 622.105469 381.796875 "/></g></g></g></g></svg>